<svg id="backend" xmlns="http://www.w3.org/2000/svg" xmlns:xlink="http://www.w3.org/1999/xlink" viewBox="0 0 128 128"><defs><style>.cls-1{fill:url(#linear-gradient);}.cls-2{fill:url(#linear-gradient-2);}.cls-3{fill:url(#linear-gradient-3);}</style><linearGradient id="linear-gradient" x1="46.54" y1="105.47" x2="103" y2="24.84" gradientUnits="userSpaceOnUse"><stop offset="0" stop-color="#00ff80"/><stop offset="0.17" stop-color="#09ff83"/><stop offset="0.44" stop-color="#21ff8b"/><stop offset="0.79" stop-color="#49ff97"/><stop offset="1" stop-color="#64ffa0"/></linearGradient><linearGradient id="linear-gradient-2" x1="34.78" y1="86.69" x2="85.62" y2="14.08" xlink:href="#linear-gradient"/><linearGradient id="linear-gradient-3" x1="22.42" y1="70.2" x2="72.14" y2="-0.8" xlink:href="#linear-gradient"/></defs><path class="cls-1" d="M39.39,76.8,64,119.43,88.61,76.8Zm15.37,8.49H73.24l-9.24,16Z"/><polygon class="cls-2" points="97.83 42.71 87.99 59.73 40.01 59.73 35.1 51.24 83.05 51.24 87.97 42.71 19.71 42.71 34.46 68.27 93.54 68.27 108.29 42.71 97.83 42.71"/><polygon class="cls-3" points="0 8.57 14.78 34.17 25.24 34.17 15.4 17.11 112.6 17.11 107.68 25.64 30.17 25.64 35.1 34.17 113.22 34.17 128 8.57 0 8.57"/></svg>