<svg xmlns="http://www.w3.org/2000/svg" viewBox="0 0 1957.61 479.48"><defs><style>.cls-1{fill:#e8eeff;opacity:0.5;}.cls-2{fill:#fff;}</style></defs><g id="Layer_2" data-name="Layer 2"><g id="txt_alt"><path class="cls-1" d="M208.41,255.74H54.1q1.9,22.88,16,35.82t34.67,12.95q29.72,0,42.29-25.52H204.6q-9.14,30.48-35,50.1t-63.63,19.62q-30.48,0-54.67-13.52a95.07,95.07,0,0,1-37.72-38.3Q0,272.14,0,239.74,0,207,13.34,182.21a93,93,0,0,1,37.33-38.1q24-13.34,55.25-13.34,30.1,0,53.91,13a91.17,91.17,0,0,1,37,36.76q13.16,23.82,13.15,54.68A125.3,125.3,0,0,1,208.41,255.74Zm-53.72-35.81q-.37-20.58-14.86-33T104.4,174.59q-19.82,0-33.34,12T54.49,219.93Z"/><path class="cls-1" d="M329,140.68q16.58-9.52,37.91-9.53v56h-14.1q-25.14,0-37.91,11.81t-12.76,41.15V345.28H248.8V134.2h53.34V167A75,75,0,0,1,329,140.68Z"/><path class="cls-1" d="M406.34,100.1A29.61,29.61,0,0,1,397,77.81a29.64,29.64,0,0,1,9.33-22.29q9.33-8.94,23.43-9t23.44,9a29.64,29.64,0,0,1,9.33,22.29,29.61,29.61,0,0,1-9.33,22.29q-9.34,9-23.44,9T406.34,100.1Zm49.72,34.1V345.28H402.72V134.2Z"/><path class="cls-1" d="M508.26,182.4a95.35,95.35,0,0,1,37-38.1q23.63-13.52,54.1-13.53,39.24,0,65,19.63t34.48,55H641.24a42.13,42.13,0,0,0-15.44-21.53q-10.84-7.8-26.86-7.81-22.86,0-36.19,16.58t-13.34,47.05q0,30.11,13.34,46.68T598.94,303q32.38,0,42.3-29h57.53Q690,308.32,664.1,328.52t-64.78,20.19q-30.48,0-54.1-13.52a95.31,95.31,0,0,1-37-38.11q-13.33-24.57-13.33-57.34T508.26,182.4Z"/><path class="cls-2" d="M1037.49,335.19a97.36,97.36,0,0,1-38.3-38.3q-13.91-24.75-13.9-57.15t14.29-57.15a99.2,99.2,0,0,1,39.05-38.29q24.76-13.52,55.24-13.53t55.25,13.53a99.36,99.36,0,0,1,39.06,38.29q14.28,24.78,14.28,57.15t-14.67,57.15a101.6,101.6,0,0,1-39.62,38.3q-25,13.53-55.82,13.52Q1061.87,348.71,1037.49,335.19Zm82.1-40q12.77-7.05,20.39-21.15t7.62-34.29q0-30.09-15.81-46.29t-38.68-16.19q-22.86,0-38.29,16.19t-15.43,46.29q0,30.11,15,46.3t37.91,16.19A55.48,55.48,0,0,0,1119.59,295.18Z"/><path class="cls-2" d="M1534.32,134.2,1472.6,345.28h-57.54l-38.48-147.45L1338.1,345.28h-57.92l-62.1-211.08h54.1L1309.52,295l40.39-160.79h56.39l39.62,160.41,37.34-160.41Z"/><path class="cls-2" d="M1758,255.74H1603.66q1.9,22.88,16,35.82t34.68,12.95q29.72,0,42.29-25.52h57.53q-9.15,30.48-35.05,50.1t-63.63,19.62q-30.49,0-54.68-13.52a95.19,95.19,0,0,1-37.72-38.3q-13.53-24.75-13.52-57.15,0-32.76,13.33-57.53a93.06,93.06,0,0,1,37.34-38.1q24-13.34,55.25-13.34,30.09,0,53.91,13a91.23,91.23,0,0,1,37,36.76q13.14,23.82,13.14,54.68A126.48,126.48,0,0,1,1758,255.74Zm-53.72-35.81q-.39-20.58-14.86-33T1654,174.59q-19.82,0-33.33,12T1604,219.93Z"/><path class="cls-2" d="M1851.69,0V345.28h-53.34V0Z"/><path class="cls-2" d="M1957.61,0V345.28h-53.34V0Z"/><path class="cls-2" d="M947,182q-12.78-24.57-34.67-37.91t-49-13.34q-23.25,0-41.34,9.72t-28.39,24.19V134.2H740.3V479.48h53.32V315.18a87.85,87.85,0,0,0,28.77,24q17.72,9.51,41,9.52,27,0,49-13.72T947,296.32q12.76-24.94,12.76-57.34T947,182Zm-49.53,90.49a56.59,56.59,0,0,1-20.58,21.72,53.76,53.76,0,0,1-54.86.19,55.15,55.15,0,0,1-20.58-21.53q-7.82-14.08-7.81-33.15t7.81-33.15A55.12,55.12,0,0,1,822,185.07a53.16,53.16,0,0,1,27.24-7.43,55,55,0,0,1,27.62,7.24A54.06,54.06,0,0,1,897.47,206q7.8,13.92,7.81,33Q905.28,258.41,897.47,272.51Z"/></g></g></svg>