<svg xmlns="http://www.w3.org/2000/svg" viewBox="0 0 2046 433.72"><defs><style>.cls-1{fill:#fff;}</style></defs><g id="Layer_2" data-name="Layer 2"><g id="txt_light"><path class="cls-1" d="M208.41,209.18H54.1Q56,232,70.11,245t34.67,12.95q29.72,0,42.29-25.52H204.6q-9.14,30.48-35,50.1t-63.63,19.62q-30.48,0-54.67-13.52a95.07,95.07,0,0,1-37.72-38.3Q0,225.57,0,193.17q0-32.76,13.34-57.53a93,93,0,0,1,37.33-38.1q24-13.33,55.25-13.34,30.1,0,53.91,13a91.13,91.13,0,0,1,37,36.77q13.16,23.81,13.15,54.67A125.51,125.51,0,0,1,208.41,209.18Zm-53.72-35.82q-.37-20.58-14.86-33T104.4,128q-19.82,0-33.34,12T54.49,173.36Z"/><path class="cls-1" d="M329,94.11q16.58-9.52,37.91-9.53v56h-14.1q-25.14,0-37.91,11.81t-12.76,41.15V298.71H248.8V87.63h53.34V120.4A75,75,0,0,1,329,94.11Z"/><path class="cls-1" d="M406.34,53.53A29.61,29.61,0,0,1,397,31.24,29.64,29.64,0,0,1,406.34,9Q415.67,0,429.77,0t23.44,9a29.64,29.64,0,0,1,9.33,22.29,29.61,29.61,0,0,1-9.33,22.29q-9.34,9-23.44,9T406.34,53.53Zm49.72,34.1V298.71H402.72V87.63Z"/><path class="cls-1" d="M508.26,135.83a95.35,95.35,0,0,1,37-38.1q23.63-13.51,54.1-13.53,39.24,0,65,19.63t34.48,55.05H641.24a42.13,42.13,0,0,0-15.44-21.53q-10.84-7.8-26.86-7.81-22.86,0-36.19,16.58t-13.34,47q0,30.11,13.34,46.68t36.19,16.57q32.38,0,42.3-29h57.53Q690,261.75,664.1,282t-64.78,20.19q-30.48,0-54.1-13.52a95.31,95.31,0,0,1-37-38.11q-13.33-24.57-13.33-57.34T508.26,135.83Z"/><path class="cls-1" d="M1125.87,288.62a97.34,97.34,0,0,1-38.29-38.3q-13.92-24.75-13.91-57.15T1088,136a99.33,99.33,0,0,1,39-38.29q24.77-13.51,55.25-13.53t55.25,13.53a99.27,99.27,0,0,1,39,38.29q14.3,24.78,14.29,57.15t-14.67,57.15a101.55,101.55,0,0,1-39.63,38.3q-24.94,13.53-55.81,13.52Q1150.25,302.14,1125.87,288.62Zm82.11-40q12.76-7.05,20.38-21.15t7.62-34.29q0-30.09-15.81-46.29t-38.67-16.19q-22.86,0-38.29,16.19t-15.43,46.29q0,30.11,15,46.3t37.91,16.19A55.48,55.48,0,0,0,1208,248.61Z"/><path class="cls-1" d="M1622.7,87.63,1561,298.71h-57.53L1465,151.26l-38.49,147.45h-57.91L1306.46,87.63h54.11l37.34,160.79L1438.3,87.63h56.39L1534.31,248l37.34-160.41Z"/><path class="cls-1" d="M1846.36,209.18H1692.05q1.89,22.86,16,35.81t34.67,12.95q29.71,0,42.29-25.52h57.54q-9.15,30.48-35.06,50.1t-63.63,19.62q-30.48,0-54.67-13.52a95.07,95.07,0,0,1-37.72-38.3q-13.53-24.75-13.53-57.15,0-32.76,13.34-57.53a93,93,0,0,1,37.34-38.1q24-13.33,55.24-13.34,30.11,0,53.92,13a91.17,91.17,0,0,1,37,36.77q13.15,23.81,13.15,54.67A126.69,126.69,0,0,1,1846.36,209.18Zm-53.73-35.82q-.37-20.58-14.86-33T1742.34,128q-19.81,0-33.34,12t-16.57,33.34Z"/><path class="cls-1" d="M1940.08,16.76v282h-53.34V16.76Z"/><path class="cls-1" d="M2046,16.76v282h-53.34V16.76Z"/><path class="cls-1" d="M85.6,371.49q9.74,9.39,9.73,26.13t-9.73,26q-9.73,9.27-27.69,9.27H38.05v-70.8H57.91Q75.86,362.11,85.6,371.49Zm-3.28,49.27q8.37-8.33,8.37-23.14t-8.37-23.3Q73.95,366,57.91,366H42.58v63.13H57.91Q74,429.08,82.32,420.76Z"/><path class="cls-1" d="M141.83,366V395.5h28.24v3.83H141.83v29.75h31.26v3.83h-35.8v-70.8h35.8V366Z"/><path class="cls-1" d="M223.52,431.2a19.77,19.77,0,0,1-8-6.55,18.37,18.37,0,0,1-3.28-9.18H217a17.13,17.13,0,0,0,5.2,9.88q4.38,4.33,13.36,4.34a20.37,20.37,0,0,0,9.13-1.92,14.51,14.51,0,0,0,6-5.24,13.48,13.48,0,0,0,2.12-7.37A12.55,12.55,0,0,0,250.3,407a15.33,15.33,0,0,0-6.16-4.54,87.78,87.78,0,0,0-9.93-3.23,79.66,79.66,0,0,1-11-3.63,17.43,17.43,0,0,1-7.06-5.6q-2.88-3.78-2.88-10.34a16.85,16.85,0,0,1,2.67-9.23,18.36,18.36,0,0,1,7.62-6.6,25.48,25.48,0,0,1,11.39-2.42q9.39,0,15.13,4.64a18,18,0,0,1,6.86,11.39h-4.84a15.05,15.05,0,0,0-2.67-5.54,15.65,15.65,0,0,0-5.85-4.69,20.13,20.13,0,0,0-9-1.87,18.46,18.46,0,0,0-11.9,3.88,13.94,13.94,0,0,0-2.32,18.56,16,16,0,0,0,6.2,4.64,74.22,74.22,0,0,0,9.94,3.18,87,87,0,0,1,11,3.68,17.37,17.37,0,0,1,7,5.55q2.88,3.78,2.88,10.23a17.29,17.29,0,0,1-2.53,9,18.94,18.94,0,0,1-7.41,6.91,24.41,24.41,0,0,1-11.85,2.67A28,28,0,0,1,223.52,431.2Z"/><path class="cls-1" d="M303.7,362.11v70.8h-4.54v-70.8Z"/><path class="cls-1" d="M406.77,383a26.25,26.25,0,0,0-10-12.71,29,29,0,0,0-16.6-4.74A29.4,29.4,0,0,0,365,369.48a28.06,28.06,0,0,0-10.69,11.19,38.41,38.41,0,0,0,0,33.89A27.68,27.68,0,0,0,365,425.7a31.31,31.31,0,0,0,29.75.26,27.4,27.4,0,0,0,10.49-10.34,33.52,33.52,0,0,0,4.33-15.68H378V396.1h36.2v3a37.89,37.89,0,0,1-4.74,17.75,32.2,32.2,0,0,1-12.1,12.3,33.78,33.78,0,0,1-17.25,4.44A34.39,34.39,0,0,1,362.49,429a32.28,32.28,0,0,1-12.3-12.81,41.41,41.41,0,0,1,0-37.31,32.28,32.28,0,0,1,12.3-12.81,34.39,34.39,0,0,1,17.65-4.59,34,34,0,0,1,19.72,5.7A32.56,32.56,0,0,1,412,383Z"/><path class="cls-1" d="M506.82,432.91h-4.54l-41.55-63.33v63.33h-4.54v-70.7h4.54l41.55,63.14V362.21h4.54Z"/><path class="cls-1" d="M556.24,366V395.5h28.24v3.83H556.24v29.75H587.5v3.83H551.7v-70.8h35.8V366Z"/><path class="cls-1" d="M667.68,432.91l-18.15-30.15H634v30.15h-4.54v-70.8h19.46q11.8,0,17.7,5.55t5.9,14.73q0,8.16-4.59,13.46t-13.36,6.51l18.56,30.55Zm-33.68-34h15.13q9.38,0,14-4.54t4.64-12q0-16.25-18.86-16.24H634Z"/><path class="cls-1" d="M1013,414.76H979.45l-6.75,18.15h-4.94l26-69.18h5l25.92,69.18h-4.94Zm-1.41-3.83L996.3,369.68l-15.43,41.25Z"/><path class="cls-1" d="M1115,432.91h-4.53l-41.56-63.33v63.33h-4.54v-70.7h4.54l41.56,63.14V362.21H1115Z"/><path class="cls-1" d="M1207.44,371.49q9.74,9.39,9.73,26.13t-9.73,26q-9.74,9.27-27.69,9.27h-19.87v-70.8h19.87Q1197.71,362.11,1207.44,371.49Zm-3.28,49.27q8.37-8.33,8.37-23.14t-8.37-23.3q-8.37-8.37-24.41-8.37h-15.33v63.13h15.33Q1195.79,429.08,1204.16,420.76Z"/><path class="cls-1" d="M1363.36,371.49q9.73,9.39,9.73,26.13t-9.73,26q-9.73,9.27-27.68,9.27h-19.87v-70.8h19.87Q1353.62,362.11,1363.36,371.49Zm-3.28,49.27q8.37-8.33,8.37-23.14t-8.37-23.3q-8.37-8.37-24.4-8.37h-15.33v63.13h15.33Q1351.71,429.08,1360.08,420.76Z"/><path class="cls-1" d="M1419.59,366V395.5h28.24v3.83h-28.24v29.75h31.26v3.83h-35.8v-70.8h35.8V366Z"/><path class="cls-1" d="M1546.26,362.11l-27,70.8h-5l-26.93-70.8h4.94l24.51,65.46,24.71-65.46Z"/><path class="cls-1" d="M1590,366V395.5h28.24v3.83H1590v29.75h31.27v3.83h-35.81v-70.8h35.81V366Z"/><path class="cls-1" d="M1667.79,429.08h26.33v3.83h-30.87v-70.8h4.54Z"/><path class="cls-1" d="M1746.56,429.13a32.09,32.09,0,0,1-12.3-12.86,41.52,41.52,0,0,1,0-37.36,32.21,32.21,0,0,1,12.3-12.81,36.23,36.23,0,0,1,35.3,0,32.15,32.15,0,0,1,12.3,12.81,41.52,41.52,0,0,1,0,37.36,32,32,0,0,1-12.3,12.86,36.23,36.23,0,0,1-35.3,0Zm32.78-3.38A27.82,27.82,0,0,0,1790,414.56a39.16,39.16,0,0,0,0-34,27.82,27.82,0,0,0-10.64-11.19,31,31,0,0,0-30.26,0,28.13,28.13,0,0,0-10.69,11.19,38.71,38.71,0,0,0,0,34,28.13,28.13,0,0,0,10.69,11.19,31,31,0,0,0,30.26,0Z"/><path class="cls-1" d="M1877.57,396.66q-5.85,5.19-17.35,5.19H1845.1v31.06h-4.54v-70.8h19.66q11.7,0,17.45,5.4t5.75,14.57Q1883.42,391.47,1877.57,396.66Zm1.31-14.58q0-7.75-4.44-11.85t-14.22-4.08H1845.1v31.67h15.12Q1878.88,397.82,1878.88,382.08Z"/><path class="cls-1" d="M1928.4,366V395.5h28.24v3.83H1928.4v29.75h31.27v3.83h-35.81v-70.8h35.81V366Z"/><path class="cls-1" d="M2039.85,432.91l-18.16-30.15h-15.53v30.15h-4.54v-70.8h19.47q11.81,0,17.7,5.55t5.9,14.73q0,8.16-4.59,13.46t-13.36,6.51l18.55,30.55Zm-33.69-34h15.13q9.38,0,14-4.54t4.64-12q0-16.25-18.86-16.24h-14.93Z"/><path class="cls-1" d="M1035.38,135.45q-12.77-24.57-34.67-37.91t-49-13.34q-23.25,0-41.34,9.72T882,118.11V87.63H828.68V432.91H882V268.61a87.71,87.71,0,0,0,28.76,24q17.73,9.51,41,9.52,27,0,49-13.71t34.67-38.68q12.76-24.94,12.77-57.34T1035.38,135.45Zm-49.53,90.49a56.56,56.56,0,0,1-20.57,21.72,53.78,53.78,0,0,1-54.87.19,55.12,55.12,0,0,1-20.57-21.53Q882,212.24,882,193.17T889.84,160a55.09,55.09,0,0,1,20.57-21.52,53.22,53.22,0,0,1,27.25-7.43,55,55,0,0,1,27.62,7.24,54,54,0,0,1,20.57,21.14q7.81,13.92,7.81,33Q993.66,211.84,985.85,225.94Z"/></g></g></svg>