<svg id="profile" xmlns="http://www.w3.org/2000/svg" xmlns:xlink="http://www.w3.org/1999/xlink" viewBox="0 0 2048 2048"><defs><style>.cls-1{fill:url(#linear-gradient);}.cls-2{fill:url(#linear-gradient-2);}.cls-3{fill:url(#linear-gradient-3);}.cls-4{fill:url(#linear-gradient-4);}</style><linearGradient id="linear-gradient" x1="505.95" y1="1763.85" x2="1542.05" y2="284.15" gradientUnits="userSpaceOnUse"><stop offset="0.2" stop-color="#008054"/><stop offset="0.57" stop-color="#009760"/><stop offset="0.8" stop-color="#00a064"/></linearGradient><linearGradient id="linear-gradient-2" x1="657.52" y1="1547.38" x2="1344.63" y2="566.09" gradientUnits="userSpaceOnUse"><stop offset="0" stop-color="#00ff80"/><stop offset="0.17" stop-color="#09ff83"/><stop offset="0.44" stop-color="#21ff8b"/><stop offset="0.79" stop-color="#49ff97"/><stop offset="1" stop-color="#64ffa0"/></linearGradient><linearGradient id="linear-gradient-3" x1="635.6" y1="1227.47" x2="1002.78" y2="703.08" xlink:href="#linear-gradient-2"/><linearGradient id="linear-gradient-4" x1="940.91" y1="1494.38" x2="1308.09" y2="970" xlink:href="#linear-gradient-2"/></defs><circle class="cls-1" cx="1024" cy="1024" r="903.12"/><path class="cls-2" d="M1024,120.88a911,911,0,0,1,182.14,18.35,897.81,897.81,0,0,1,322.72,135.82A906,906,0,0,1,1856.19,672.5a897.44,897.44,0,0,1,52.58,169.36,913.13,913.13,0,0,1,0,364.28A897.81,897.81,0,0,1,1773,1528.86a906,906,0,0,1-397.45,327.33,897.44,897.44,0,0,1-169.36,52.58,913.13,913.13,0,0,1-364.28,0A897.81,897.81,0,0,1,519.14,1773,906,906,0,0,1,191.81,1375.5a897.44,897.44,0,0,1-52.58-169.36,913.13,913.13,0,0,1,0-364.28A897.81,897.81,0,0,1,275.05,519.14,906,906,0,0,1,672.5,191.81a897.44,897.44,0,0,1,169.36-52.58A911,911,0,0,1,1024,120.88M1024,1C459,1,1,459,1,1024S459,2047,1024,2047s1023-458,1023-1023S1589,1,1024,1Z"/><polygon class="cls-3" points="274.73 1220.35 1006.44 1220.35 1006.44 994.98 874.73 994.98 874.73 1088.64 544.76 1088.64 874.73 666.28 874.73 828.15 795.1 828.15 692.2 959.86 1006.44 959.86 1006.44 283.76 274.73 1220.35"/><polygon class="cls-4" points="1041.56 828.15 1041.56 1764.24 1173.27 1596.18 1173.27 959.86 1503.24 959.86 1402.63 1088.64 1208.39 1088.64 1208.39 1220.35 1466.87 1220.35 1773.27 828.15 1041.56 828.15"/></svg>