<svg xmlns="http://www.w3.org/2000/svg" viewBox="0 0 2046 445.43"><defs><style>.cls-1{fill:#fff;}</style></defs><g id="Layer_2" data-name="Layer 2"><g id="txt_light"><path class="cls-1" d="M172.45,134.47a82.39,82.39,0,0,0-30.18-20.12,104.16,104.16,0,0,0-38-6.77A110.67,110.67,0,0,0,63,115.17,98.55,98.55,0,0,0,30,136.52,99,99,0,0,0,8,169.78Q0,189.3,0,213.1q0,24.24,8,43.32a91.57,91.57,0,0,0,22.17,32.23A99.54,99.54,0,0,0,63.64,309a120.57,120.57,0,0,0,42.3,7.18q55.42,0,84.58-39.41l-32.85-26.28a58.55,58.55,0,0,1-20.94,18.68q-12.73,6.78-31.2,6.78A58,58,0,0,1,85,272.23a62.06,62.06,0,0,1-17.66-10.06A49.44,49.44,0,0,1,54.82,247a48.81,48.81,0,0,1-5.55-19.51H199.14a53.41,53.41,0,0,0,.41-6.57v-6.57q0-26.69-7.18-46.6T172.45,134.47ZM49.27,192.16q1.63-20.94,17-34.28t37.57-13.35a51,51,0,0,1,20.74,3.9,40.31,40.31,0,0,1,23,25.66,60.79,60.79,0,0,1,2.67,18.07Z"/><path class="cls-1" d="M352.7,107.58q-19.69,0-34.49,10.67a71.94,71.94,0,0,0-23,27.92h-.82V113.33H247.18V310.42h49.27V204.89a68.61,68.61,0,0,1,2.05-14.37,52.88,52.88,0,0,1,7.81-17.66,49.18,49.18,0,0,1,16-14.78q10.26-6.15,27.1-6.16a58.64,58.64,0,0,1,6.77.41,68.23,68.23,0,0,1,8.42,1.65V108.81a22.74,22.74,0,0,0-5.75-1Q355.58,107.59,352.7,107.58Z"/><path class="cls-1" d="M421.68,16.83q-13.55,0-22.37,8.83a28.76,28.76,0,0,0,0,41.47Q408.13,76,421.68,76t22.79-8.42a27.36,27.36,0,0,0,9.24-21.14,27.42,27.42,0,0,0-9.24-21.15Q435.23,16.84,421.68,16.83Z"/><rect class="cls-1" x="397.46" y="113.33" width="49.27" height="197.09"/><path class="cls-1" d="M559.85,168.76a51.66,51.66,0,0,1,17-14.58q10.26-5.53,23.81-5.54a53.48,53.48,0,0,1,23.41,5.54q11.49,5.55,17.24,13.76L675,138.37Q663.11,124,642.79,115.79a114.21,114.21,0,0,0-82.94-.82,101.91,101.91,0,0,0-33.47,20.94,98.58,98.58,0,0,0-22.78,32.85q-8.43,19.31-8.42,43.11,0,24.63,8.42,43.94a96.28,96.28,0,0,0,57.07,53.37,121.34,121.34,0,0,0,41.27,7A116.42,116.42,0,0,0,643.2,309q19.09-7.19,31.41-20.33l-30.79-31.2a43.87,43.87,0,0,1-18.48,13.14,62.51,62.51,0,0,1-23,4.51q-14,0-24.44-5.54A53.11,53.11,0,0,1,560.46,255,63.65,63.65,0,0,1,550,234.66a76.66,76.66,0,0,1-3.49-22.79,80.89,80.89,0,0,1,3.29-22.79A62.74,62.74,0,0,1,559.85,168.76Z"/><path class="cls-1" d="M995.29,137.55a91.91,91.91,0,0,0-69-30,89.41,89.41,0,0,0-24.43,3.08,93.2,93.2,0,0,0-19.51,7.8,64,64,0,0,0-14.57,10.67,71.73,71.73,0,0,0-9.65,11.71h-1.23V113.33H809.7V443.68H859V284.14h.82q9.44,14.78,26.9,23.4a85.43,85.43,0,0,0,38.39,8.62q22.57,0,40.44-8.41a92.88,92.88,0,0,0,30.39-22.59,100.23,100.23,0,0,0,19.29-33.25,121.23,121.23,0,0,0,6.78-40.86,116.41,116.41,0,0,0-7-40.65A99.47,99.47,0,0,0,995.29,137.55ZM968.39,234a62.88,62.88,0,0,1-10.47,20.53,54.72,54.72,0,0,1-17.65,14.79q-10.68,5.75-25,5.74A51.7,51.7,0,0,1,891,269.56,59.23,59.23,0,0,1,872.72,255a63.4,63.4,0,0,1-11.49-20.32,69.12,69.12,0,0,1-3.9-22.79,70.91,70.91,0,0,1,3.9-23,63.14,63.14,0,0,1,11.49-20.53A62.32,62.32,0,0,1,891,153.56a50.27,50.27,0,0,1,24.22-5.74q14.37,0,25,5.54a52.69,52.69,0,0,1,17.65,14.58,63.46,63.46,0,0,1,10.47,20.32,76.73,76.73,0,0,1,3.5,22.79A78.63,78.63,0,0,1,968.39,234Z"/><path class="cls-1" d="M1241.24,135.91A100.63,100.63,0,0,0,1207.16,115a122.36,122.36,0,0,0-83.76,0,100.53,100.53,0,0,0-34.08,20.94,99,99,0,0,0-22.79,32.64q-8.43,19.09-8.42,42.5t8.42,42.7a100.79,100.79,0,0,0,22.79,33.06,103.86,103.86,0,0,0,34.08,21.55,116.33,116.33,0,0,0,83.76,0,104,104,0,0,0,34.08-21.55A101.25,101.25,0,0,0,1264,253.75q8.4-19.29,8.42-42.7t-8.42-42.5A99.45,99.45,0,0,0,1241.24,135.91ZM1218.86,234a63.27,63.27,0,0,1-10.47,20.53,54.82,54.82,0,0,1-17.65,14.79q-10.7,5.75-25.46,5.74t-25.46-5.74a54.75,54.75,0,0,1-17.66-14.79A63.27,63.27,0,0,1,1111.69,234a79,79,0,0,1-3.49-23,77,77,0,0,1,3.49-22.79,63.86,63.86,0,0,1,10.47-20.32,52.72,52.72,0,0,1,17.66-14.58q10.67-5.55,25.46-5.54t25.46,5.54a52.78,52.78,0,0,1,17.65,14.58,63.86,63.86,0,0,1,10.47,20.32,77,77,0,0,1,3.49,22.79A79,79,0,0,1,1218.86,234Z"/><polygon class="cls-1" points="1525.78 254.57 1524.96 254.57 1482.26 113.33 1429.7 113.33 1387.41 254.57 1386.59 254.57 1345.53 113.33 1292.15 113.33 1360.72 310.42 1410.81 310.42 1455.16 172.45 1455.98 172.45 1500.73 310.42 1550.83 310.42 1618.99 113.33 1567.66 113.33 1525.78 254.57"/><path class="cls-1" d="M1811.14,134.47A82.39,82.39,0,0,0,1781,114.35a104.16,104.16,0,0,0-38-6.77,110.67,110.67,0,0,0-41.26,7.59,96.47,96.47,0,0,0-55,54.61q-8,19.51-8,43.32,0,24.24,8,43.32a91.57,91.57,0,0,0,22.17,32.23A99.54,99.54,0,0,0,1702.33,309a120.57,120.57,0,0,0,42.3,7.18q55.42,0,84.58-39.41l-32.85-26.28a58.55,58.55,0,0,1-20.94,18.68q-12.74,6.78-31.2,6.78a58,58,0,0,1-20.53-3.7A62.06,62.06,0,0,1,1706,262.17,49.44,49.44,0,0,1,1693.51,247a48.81,48.81,0,0,1-5.55-19.51h149.87a53.41,53.41,0,0,0,.41-6.57v-6.57q0-26.69-7.18-46.6T1811.14,134.47ZM1688,192.16q1.63-20.94,17-34.28t37.57-13.35a51,51,0,0,1,20.74,3.9,40.31,40.31,0,0,1,23,25.66,60.79,60.79,0,0,1,2.67,18.07Z"/><rect class="cls-1" x="1886.69" width="49.27" height="310.42"/><rect class="cls-1" x="1996.73" width="49.27" height="310.42"/><path class="cls-1" d="M76.57,404.78A41.71,41.71,0,0,1,73.31,422a32.44,32.44,0,0,1-9,11.95,37.88,37.88,0,0,1-13.51,7,58.89,58.89,0,0,1-16.66,2.28H12.33V366.31H34.14a60.38,60.38,0,0,1,16.66,2.22,37.3,37.3,0,0,1,13.51,7,32.41,32.41,0,0,1,9,12A42.12,42.12,0,0,1,76.57,404.78Zm-61.85-36.3v72.6H33.56A57.84,57.84,0,0,0,49.51,439a35.66,35.66,0,0,0,12.91-6.52A30.84,30.84,0,0,0,71,421.19a39,39,0,0,0,3.16-16.41A39.47,39.47,0,0,0,71,388.31a30.94,30.94,0,0,0-8.6-11.3,35.27,35.27,0,0,0-12.91-6.47,59.82,59.82,0,0,0-15.95-2.06Z"/><path class="cls-1" d="M115,443.26V366.31h44.89v2.17h-42.5v33.8h40v2.18h-40v36.62h44.24v2.18Z"/><path class="cls-1" d="M240.79,424.78a19.5,19.5,0,0,1-1.9,8.75,19.86,19.86,0,0,1-5,6.52,21.24,21.24,0,0,1-7.45,4,29.38,29.38,0,0,1-9,1.36,32.81,32.81,0,0,1-13.1-2.55,27.92,27.92,0,0,1-9.84-6.9l1.85-1.64A26.46,26.46,0,0,0,206,441a29.86,29.86,0,0,0,11.36,2.23,25.72,25.72,0,0,0,8-1.25,21.36,21.36,0,0,0,6.74-3.59,16.64,16.64,0,0,0,4.62-5.76,17.66,17.66,0,0,0,1.68-7.88,14.23,14.23,0,0,0-1.84-7.5,18.31,18.31,0,0,0-4.79-5.22,28.65,28.65,0,0,0-6.68-3.64q-3.75-1.46-7.55-2.66-4.78-1.51-8.75-3.21a26.33,26.33,0,0,1-6.85-4.13,16.79,16.79,0,0,1-4.46-5.87,19.78,19.78,0,0,1-1.57-8.31A18.28,18.28,0,0,1,203,369.4a23.88,23.88,0,0,1,7.56-3.91,30,30,0,0,1,9.07-1.36,28.41,28.41,0,0,1,11.14,2.23,22,22,0,0,1,8.64,6.36l-1.85,1.63a20.42,20.42,0,0,0-7.77-5.93,24.83,24.83,0,0,0-10.27-2.11,27.53,27.53,0,0,0-7.66,1.08,21.48,21.48,0,0,0-6.79,3.32,16.82,16.82,0,0,0-4.89,5.6,18.1,18.1,0,0,0-.22,15.48,16.47,16.47,0,0,0,4.35,5.28,25.11,25.11,0,0,0,6.14,3.58q3.42,1.41,7,2.61,4.89,1.64,9.13,3.32a32.56,32.56,0,0,1,7.44,4.07,17,17,0,0,1,5,5.82A17.65,17.65,0,0,1,240.79,424.78Z"/><path class="cls-1" d="M279.16,443.26V366.31h2.39v76.95Z"/><path class="cls-1" d="M376.64,443.37a57.16,57.16,0,0,1-16.12,2.06,42.63,42.63,0,0,1-16.65-3.15A37.58,37.58,0,0,1,322.8,420.7a44.33,44.33,0,0,1-2.88-16.14,43.8,43.8,0,0,1,2.93-16.14,38,38,0,0,1,8.21-12.82,37.36,37.36,0,0,1,12.66-8.43,42.6,42.6,0,0,1,16.31-3,41.45,41.45,0,0,1,14.34,2.39,38.93,38.93,0,0,1,11.52,6.53l-1.74,1.73a24.26,24.26,0,0,0-5-3.64,37.77,37.77,0,0,0-6.09-2.66,40.7,40.7,0,0,0-6.57-1.63,41.24,41.24,0,0,0-6.52-.54,38.76,38.76,0,0,0-15.44,3,35.67,35.67,0,0,0-11.9,8.21A36.53,36.53,0,0,0,325,389.67a41.45,41.45,0,0,0-2.66,14.89,42.94,42.94,0,0,0,2.61,15,36.16,36.16,0,0,0,7.55,12.34,35.32,35.32,0,0,0,12.07,8.32,40.82,40.82,0,0,0,16.14,3,54.26,54.26,0,0,0,13.91-1.63,61.48,61.48,0,0,0,11.19-4.13V407.28h-20v-2.06h22.39V438.8A59.81,59.81,0,0,1,376.64,443.37Z"/><path class="cls-1" d="M487,443.26l-55.21-73.91h-.33v73.91H429V366.31h3.37l55.32,73.8h.33v-73.8h2.39v76.95Z"/><path class="cls-1" d="M532.51,443.26V366.31H577.4v2.17H534.9v33.8h40v2.18h-40v36.62h44.24v2.18Z"/><path class="cls-1" d="M659.35,443.26l-23.26-38.8h-18v38.8h-2.39V366.31H637a49.48,49.48,0,0,1,8.59.76,21.42,21.42,0,0,1,7.77,2.88,16.61,16.61,0,0,1,5.6,5.81,18.7,18.7,0,0,1,2.17,9.57,17.94,17.94,0,0,1-2.06,9,17.53,17.53,0,0,1-5.33,5.81,21.85,21.85,0,0,1-7.23,3.21,32.44,32.44,0,0,1-7.77,1l23.37,38.91Zm-.65-57.93a16.09,16.09,0,0,0-2-8.32,14.51,14.51,0,0,0-5.16-5.22,22.36,22.36,0,0,0-7.39-2.66,48.24,48.24,0,0,0-8.53-.76H618.05v34h18.8q10.65,0,16.25-4.46T658.7,385.33Z"/><path class="cls-1" d="M1009,443.26l-9.14-22.07H955.16l-9.45,22.07H943.1l33.37-76.95h3l32.06,76.95Zm-31.09-75.43L956,419.13h43Z"/><path class="cls-1" d="M1102,443.26l-55.21-73.91h-.33v73.91h-2.39V366.31h3.37l55.32,73.8h.33v-73.8h2.39v76.95Z"/><path class="cls-1" d="M1211.78,404.78a41.71,41.71,0,0,1-3.26,17.23,32.35,32.35,0,0,1-9,11.95,37.76,37.76,0,0,1-13.5,7,58.89,58.89,0,0,1-16.66,2.28h-21.81V366.31h21.81a60.38,60.38,0,0,1,16.66,2.22,37.18,37.18,0,0,1,13.5,7,32.32,32.32,0,0,1,9,12A42.12,42.12,0,0,1,1211.78,404.78Zm-61.85-36.3v72.6h18.84a57.84,57.84,0,0,0,16-2.12,35.7,35.7,0,0,0,12.9-6.52,30.76,30.76,0,0,0,8.61-11.25,39,39,0,0,0,3.15-16.41,39.48,39.48,0,0,0-3.15-16.47,30.86,30.86,0,0,0-8.61-11.3,35.3,35.3,0,0,0-12.9-6.47,59.82,59.82,0,0,0-16-2.06Z"/><path class="cls-1" d="M1360.68,404.78a41.71,41.71,0,0,1-3.26,17.23,32.44,32.44,0,0,1-9,11.95,37.88,37.88,0,0,1-13.51,7,58.89,58.89,0,0,1-16.66,2.28h-21.81V366.31h21.81a60.38,60.38,0,0,1,16.66,2.22,37.3,37.3,0,0,1,13.51,7,32.41,32.41,0,0,1,9,12A42.12,42.12,0,0,1,1360.68,404.78Zm-61.85-36.3v72.6h18.84a57.84,57.84,0,0,0,15.95-2.12,35.66,35.66,0,0,0,12.91-6.52,30.73,30.73,0,0,0,8.6-11.25,39,39,0,0,0,3.16-16.41,39.47,39.47,0,0,0-3.16-16.47,30.83,30.83,0,0,0-8.6-11.3,35.27,35.27,0,0,0-12.91-6.47,59.82,59.82,0,0,0-15.95-2.06Z"/><path class="cls-1" d="M1399.15,443.26V366.31H1444v2.17h-42.5v33.8h40v2.18h-40v36.62h44.24v2.18Z"/><path class="cls-1" d="M1505.34,443.26h-3.69l-28.92-76.95h2.61l28.05,74.77h.21l28.48-74.77h2.61Z"/><path class="cls-1" d="M1567.18,443.26V366.31h44.89v2.17h-42.49v33.8h40v2.18h-40v36.62h44.23v2.18Z"/><path class="cls-1" d="M1650.33,443.26V366.31h2.39v74.77H1691v2.18Z"/><path class="cls-1" d="M1794.34,404.78a43.38,43.38,0,0,1-3,16.36,38.49,38.49,0,0,1-8.26,12.82,37.69,37.69,0,0,1-12.55,8.43,42.37,42.37,0,0,1-31.52,0,37.69,37.69,0,0,1-12.55-8.43,38.49,38.49,0,0,1-8.26-12.82,46.25,46.25,0,0,1,0-32.72,38.6,38.6,0,0,1,8.26-12.82,37.78,37.78,0,0,1,12.5-8.43,42.63,42.63,0,0,1,31.62,0,37.78,37.78,0,0,1,12.5,8.43,38.6,38.6,0,0,1,8.26,12.82A43.42,43.42,0,0,1,1794.34,404.78Zm-2.39,0a41.3,41.3,0,0,0-2.72-15,37,37,0,0,0-7.66-12.23,35.82,35.82,0,0,0-11.79-8.21,39.24,39.24,0,0,0-30,0A35.92,35.92,0,0,0,1728,377.5a37,37,0,0,0-7.66,12.23,41.09,41.09,0,0,0-2.72,15,42.22,42.22,0,0,0,2.66,15.06,36.6,36.6,0,0,0,7.56,12.22,35.12,35.12,0,0,0,11.73,8.21,40.23,40.23,0,0,0,30.44,0,35.26,35.26,0,0,0,11.74-8.21,36.74,36.74,0,0,0,7.55-12.22A42.22,42.22,0,0,0,1792,404.78Z"/><path class="cls-1" d="M1877.38,385.44a19.88,19.88,0,0,1-1.79,8.64,18,18,0,0,1-4.84,6.24,21.27,21.27,0,0,1-7.12,3.81,28.14,28.14,0,0,1-8.64,1.3H1835.1v37.83h-2.39V366.31h20.87a39,39,0,0,1,8.37.92,23.59,23.59,0,0,1,7.66,3.1,17.06,17.06,0,0,1,5.6,5.87A18,18,0,0,1,1877.38,385.44Zm-2.39,0a16.39,16.39,0,0,0-1.85-8.16,15,15,0,0,0-4.78-5.21,20.17,20.17,0,0,0-6.57-2.83,31.06,31.06,0,0,0-7.23-.87H1835.1v35h20a27.22,27.22,0,0,0,7.17-1,18.34,18.34,0,0,0,6.42-3.15,16.26,16.26,0,0,0,4.56-5.6A17.91,17.91,0,0,0,1875,385.44Z"/><path class="cls-1" d="M1913.9,443.26V366.31h44.89v2.17h-42.5v33.8h40v2.18h-40v36.62h44.24v2.18Z"/><path class="cls-1" d="M2040.74,443.26l-23.26-38.8h-18v38.8h-2.39V366.31h21.3a49.48,49.48,0,0,1,8.59.76,21.49,21.49,0,0,1,7.77,2.88,16.7,16.7,0,0,1,5.6,5.81,18.8,18.8,0,0,1,2.17,9.57,17.84,17.84,0,0,1-2.07,9,17.4,17.4,0,0,1-5.32,5.81,21.94,21.94,0,0,1-7.23,3.21,32.5,32.5,0,0,1-7.77,1l23.37,38.91Zm-.65-57.93a16.09,16.09,0,0,0-2-8.32,14.51,14.51,0,0,0-5.16-5.22,22.36,22.36,0,0,0-7.39-2.66,48.32,48.32,0,0,0-8.53-.76h-17.61v34h18.8q10.65,0,16.25-4.46T2040.09,385.33Z"/></g></g></svg>