<svg xmlns="http://www.w3.org/2000/svg" viewBox="0 0 2046 463.21"><defs><style>.cls-1{fill:#e8eeff;opacity:0.5;}.cls-2{fill:#fff;}</style></defs><g id="Layer_2" data-name="Layer 2"><g id="txt_alt"><path class="cls-1" d="M180,140.39a86,86,0,0,0-31.5-21,108.6,108.6,0,0,0-39.66-7.08,115.62,115.62,0,0,0-43.08,7.93,100.65,100.65,0,0,0-57.44,57Q0,197.62,0,222.48q0,25.31,8.36,45.23a95.54,95.54,0,0,0,23.15,33.65,104,104,0,0,0,34.94,21.22,125.59,125.59,0,0,0,44.15,7.5q57.87,0,88.31-41.15l-34.3-27.44A61.07,61.07,0,0,1,142.75,281q-13.29,7.06-32.58,7.07a60.58,60.58,0,0,1-21.43-3.86,65,65,0,0,1-18.44-10.5,51.66,51.66,0,0,1-13.07-15.86,50.84,50.84,0,0,1-5.79-20.36H207.91a56.41,56.41,0,0,0,.43-6.86v-6.86q0-27.87-7.5-48.66T180,140.39ZM51.44,200.62q1.71-21.85,17.79-35.79t39.23-13.94q12.42,0,21.64,4.08a42.06,42.06,0,0,1,24,26.79,63.67,63.67,0,0,1,2.79,18.86Z"/><path class="cls-1" d="M368.23,112.31q-20.58,0-36,11.15a75,75,0,0,0-24,29.15h-.86v-34.3h-49.3V324.08H309.5V213.91a71.56,71.56,0,0,1,2.14-15,55.12,55.12,0,0,1,8.15-18.44A51.42,51.42,0,0,1,336.51,165q10.71-6.43,28.29-6.43a61.88,61.88,0,0,1,7.07.43,74,74,0,0,1,8.79,1.71V113.6a23.67,23.67,0,0,0-6-1.07C372.37,112.39,370.23,112.31,368.23,112.31Z"/><path class="cls-1" d="M440.25,17.57q-14.14,0-23.37,9.22a30.05,30.05,0,0,0,0,43.3q9.22,9.22,23.37,9.21T464,70.52a28.61,28.61,0,0,0,9.64-22.08A28.62,28.62,0,0,0,464,26.36Q454.4,17.59,440.25,17.57Z"/><rect class="cls-1" x="414.95" y="118.31" width="51.44" height="205.77"/><path class="cls-1" d="M584.49,176.19A54,54,0,0,1,602.28,161q10.71-5.79,24.86-5.79A55.7,55.7,0,0,1,651.58,161q12,5.79,18,14.36l35.16-30.87q-12.45-15-33.66-23.57a119.15,119.15,0,0,0-86.59-.86,106.21,106.21,0,0,0-34.94,21.86,103.27,103.27,0,0,0-23.79,34.3q-8.79,20.15-8.79,45,0,25.71,8.79,45.87a100.53,100.53,0,0,0,59.59,55.72,126.8,126.8,0,0,0,43.08,7.29,121.36,121.36,0,0,0,43.08-7.5q19.93-7.5,32.8-21.22l-32.15-32.58a45.87,45.87,0,0,1-19.29,13.72,65.15,65.15,0,0,1-24,4.71q-14.58,0-25.51-5.78a55.63,55.63,0,0,1-18.22-15.22A66.39,66.39,0,0,1,574.2,245a80.13,80.13,0,0,1-3.64-23.79A84.65,84.65,0,0,1,574,197.41,65.44,65.44,0,0,1,584.49,176.19Z"/><path class="cls-2" d="M949,143.61a96,96,0,0,0-72-31.3,93.27,93.27,0,0,0-25.5,3.22,97.92,97.92,0,0,0-20.37,8.14,66.64,66.64,0,0,0-15.21,11.15A74.46,74.46,0,0,0,805.86,147h-1.28V118.31h-49.3v344.9h51.44V296.64h.86q9.85,15.44,28.07,24.44a89.28,89.28,0,0,0,40.09,9q23.57,0,42.22-8.79a96.85,96.85,0,0,0,31.72-23.57A104.49,104.49,0,0,0,969.83,263a126.48,126.48,0,0,0,7.07-42.65,121.66,121.66,0,0,0-7.28-42.44A103.91,103.91,0,0,0,949,143.61ZM921,244.35A66,66,0,0,1,910,265.78a57.17,57.17,0,0,1-18.43,15.43q-11.16,6-26.15,6a54.13,54.13,0,0,1-25.29-5.78,61.77,61.77,0,0,1-19.08-15.22,66.08,66.08,0,0,1-12-21.22A72.31,72.31,0,0,1,805,221.2a74.22,74.22,0,0,1,4.08-24,65.72,65.72,0,0,1,12-21.43,64.72,64.72,0,0,1,19.08-15.44,52.58,52.58,0,0,1,25.29-6q15,0,26.15,5.79A54.9,54.9,0,0,1,910,175.33,66.5,66.5,0,0,1,921,196.55a80.14,80.14,0,0,1,3.65,23.79A82.28,82.28,0,0,1,921,244.35Z"/><path class="cls-2" d="M1205.81,141.89A104.82,104.82,0,0,0,1170.24,120a127.69,127.69,0,0,0-87.45,0,104.77,104.77,0,0,0-35.58,21.86,103.65,103.65,0,0,0-23.8,34.08q-8.79,19.93-8.78,44.37t8.78,44.58a105.39,105.39,0,0,0,23.8,34.51,108.51,108.51,0,0,0,35.58,22.51,121.51,121.51,0,0,0,87.45,0,108.57,108.57,0,0,0,35.57-22.51,105.39,105.39,0,0,0,23.8-34.51q8.78-20.15,8.79-44.58T1229.61,176A103.65,103.65,0,0,0,1205.81,141.89Zm-23.36,102.46a66,66,0,0,1-10.93,21.43,57.17,57.17,0,0,1-18.43,15.43q-11.16,6-26.58,6t-26.58-6a57.17,57.17,0,0,1-18.43-15.43,65.82,65.82,0,0,1-10.93-21.43,82.28,82.28,0,0,1-3.65-24,80.14,80.14,0,0,1,3.65-23.79,66.3,66.3,0,0,1,10.93-21.22,54.9,54.9,0,0,1,18.43-15.22q11.14-5.79,26.58-5.79t26.58,5.79a54.9,54.9,0,0,1,18.43,15.22,66.5,66.5,0,0,1,10.93,21.22,80.14,80.14,0,0,1,3.65,23.79A82.28,82.28,0,0,1,1182.45,244.35Z"/><polygon class="cls-2" points="1502.88 265.78 1502.03 265.78 1457.44 118.31 1402.57 118.31 1358.42 265.78 1357.56 265.78 1314.69 118.31 1258.97 118.31 1330.55 324.08 1382.85 324.08 1429.15 180.04 1430.01 180.04 1476.73 324.08 1529.03 324.08 1600.19 118.31 1546.61 118.31 1502.88 265.78"/><path class="cls-2" d="M1800.81,140.39a86.07,86.07,0,0,0-31.51-21,108.58,108.58,0,0,0-39.65-7.08,115.64,115.64,0,0,0-43.09,7.93,100.73,100.73,0,0,0-57.44,57q-8.36,20.36-8.36,45.22,0,25.31,8.36,45.23a95.54,95.54,0,0,0,23.15,33.65,104,104,0,0,0,34.94,21.22,125.59,125.59,0,0,0,44.15,7.5q57.87,0,88.31-41.15l-34.3-27.44A61,61,0,0,1,1763.51,281q-13.29,7.06-32.58,7.07a60.58,60.58,0,0,1-21.43-3.86,64.82,64.82,0,0,1-18.43-10.5A51.55,51.55,0,0,1,1678,257.85a50.84,50.84,0,0,1-5.79-20.36h156.47a56.41,56.41,0,0,0,.43-6.86v-6.86q0-27.87-7.5-48.66T1800.81,140.39ZM1672.2,200.62q1.71-21.85,17.79-35.79t39.23-13.94q12.42,0,21.65,4.08a42.08,42.08,0,0,1,24,26.79,63.35,63.35,0,0,1,2.79,18.86Z"/><rect class="cls-2" x="1879.68" width="51.44" height="324.08"/><rect class="cls-2" x="1994.56" width="51.44" height="324.08"/></g></g></svg>