<svg xmlns="http://www.w3.org/2000/svg" viewBox="0 0 1291.6 293.17"><defs><style>.cls-1{fill:#dce4ff;opacity:0.5;}.cls-2{fill:#fff;}</style></defs><g id="Layer_2" data-name="Layer 2"><g id="palette"><path class="cls-1" d="M114,88.85A54.46,54.46,0,0,0,94,75.56a68.86,68.86,0,0,0-25.1-4.48,73.2,73.2,0,0,0-27.26,5A63.76,63.76,0,0,0,5.29,112.19,74.63,74.63,0,0,0,0,140.81a73.4,73.4,0,0,0,5.29,28.63,60.47,60.47,0,0,0,14.65,21.29,65.83,65.83,0,0,0,22.11,13.43,79.41,79.41,0,0,0,28,4.75q36.63,0,55.89-26l-21.7-17.37a38.82,38.82,0,0,1-13.84,12.35q-8.41,4.47-20.62,4.47a38.26,38.26,0,0,1-13.57-2.44,41,41,0,0,1-11.66-6.65,32.68,32.68,0,0,1-8.28-10,32.25,32.25,0,0,1-3.66-12.89h99a35.12,35.12,0,0,0,.27-4.34v-4.34q0-17.64-4.75-30.8A61.82,61.82,0,0,0,114,88.85ZM32.56,127a32.11,32.11,0,0,1,11.26-22.66Q54,95.5,68.64,95.5a33.62,33.62,0,0,1,13.7,2.58,26.6,26.6,0,0,1,15.2,17A40.35,40.35,0,0,1,99.3,127Z"/><path class="cls-1" d="M233.06,71.08a37.9,37.9,0,0,0-22.79,7.06,47.42,47.42,0,0,0-15.2,18.45h-.54V74.88h-31.2V205.11h32.56V135.39a45.65,45.65,0,0,1,1.35-9.5,35,35,0,0,1,5.16-11.67A32.47,32.47,0,0,1,213,104.46q6.78-4.08,17.91-4.07a38.52,38.52,0,0,1,4.47.27,45.51,45.51,0,0,1,5.56,1.08V71.9a15,15,0,0,0-3.79-.68C235.68,71.13,234.32,71.08,233.06,71.08Z"/><path class="cls-1" d="M278.64,11.12A20,20,0,0,0,263.85,17a19,19,0,0,0,0,27.4,20,20,0,0,0,14.79,5.83,21.48,21.48,0,0,0,15.05-5.56,18.09,18.09,0,0,0,6.11-14,18.09,18.09,0,0,0-6.11-14A21.49,21.49,0,0,0,278.64,11.12Z"/><rect class="cls-1" x="262.63" y="74.88" width="32.56" height="130.23"/><path class="cls-1" d="M369.93,111.51a34.21,34.21,0,0,1,11.26-9.63,32.64,32.64,0,0,1,15.74-3.66,35.27,35.27,0,0,1,15.46,3.66,28.77,28.77,0,0,1,11.4,9.09L446,91.43q-7.87-9.5-21.3-14.92A75.4,75.4,0,0,0,369.93,76,67.3,67.3,0,0,0,347.82,89.8a65.39,65.39,0,0,0-15.06,21.71A70.51,70.51,0,0,0,327.2,140q0,16.27,5.56,29a63.63,63.63,0,0,0,37.71,35.27,80.42,80.42,0,0,0,27.27,4.61A76.69,76.69,0,0,0,425,204.16a53.8,53.8,0,0,0,20.75-13.43l-20.34-20.62a29,29,0,0,1-12.21,8.69,41.34,41.34,0,0,1-15.2,3,34,34,0,0,1-16.14-3.66,35.08,35.08,0,0,1-11.53-9.63,41.89,41.89,0,0,1-6.92-13.43A50.72,50.72,0,0,1,361.11,140a53.62,53.62,0,0,1,2.17-15.06A41.69,41.69,0,0,1,369.93,111.51Z"/><path class="cls-2" d="M597.32,90.89a60.69,60.69,0,0,0-45.58-19.81,59.13,59.13,0,0,0-16.14,2,62.67,62.67,0,0,0-12.89,5.15,42.61,42.61,0,0,0-9.63,7.06,46.81,46.81,0,0,0-6.37,7.73h-.82V74.88h-31.2V293.17h32.56V187.75h.54a43.11,43.11,0,0,0,17.77,15.46,56.48,56.48,0,0,0,25.37,5.7,60.76,60.76,0,0,0,46.8-20.48,66.1,66.1,0,0,0,12.75-22,80,80,0,0,0,4.48-27,77,77,0,0,0-4.61-26.86A65.63,65.63,0,0,0,597.32,90.89Zm-17.77,63.76a41.7,41.7,0,0,1-6.91,13.56A36.15,36.15,0,0,1,561,178a37.39,37.39,0,0,1-32.56.14,39.11,39.11,0,0,1-12.07-9.63,42,42,0,0,1-7.6-13.43A45.86,45.86,0,0,1,506.16,140a47.08,47.08,0,0,1,2.58-15.2,41.67,41.67,0,0,1,7.6-13.56,41.07,41.07,0,0,1,12.07-9.77,33.25,33.25,0,0,1,16-3.8A35.37,35.37,0,0,1,561,101.34,34.8,34.8,0,0,1,572.64,111a42,42,0,0,1,6.91,13.43,50.62,50.62,0,0,1,2.31,15.06A52,52,0,0,1,579.55,154.65Z"/><path class="cls-2" d="M759.84,89.8A66.43,66.43,0,0,0,737.32,76,80.76,80.76,0,0,0,682,76,66.43,66.43,0,0,0,659.45,89.8a65.55,65.55,0,0,0-15.05,21.57,68.91,68.91,0,0,0-5.56,28.09,69.76,69.76,0,0,0,5.56,28.21,66.5,66.5,0,0,0,15.05,21.84A68.68,68.68,0,0,0,682,203.76a76.93,76.93,0,0,0,55.35,0,68.68,68.68,0,0,0,22.52-14.25,66.67,66.67,0,0,0,15.06-21.84,69.93,69.93,0,0,0,5.56-28.21,69.08,69.08,0,0,0-5.56-28.09A65.73,65.73,0,0,0,759.84,89.8Zm-14.78,64.85a41.91,41.91,0,0,1-6.92,13.56A36.15,36.15,0,0,1,726.47,178a39.13,39.13,0,0,1-33.64,0,35.94,35.94,0,0,1-11.67-9.77,41.72,41.72,0,0,1-6.92-13.56,52,52,0,0,1-2.3-15.19,50.61,50.61,0,0,1,2.3-15.06A42,42,0,0,1,681.16,111a34.61,34.61,0,0,1,11.67-9.63,40.38,40.38,0,0,1,33.64,0A34.8,34.8,0,0,1,738.14,111a42.19,42.19,0,0,1,6.92,13.43,50.93,50.93,0,0,1,2.3,15.06A52.29,52.29,0,0,1,745.06,154.65Z"/><polygon class="cls-2" points="947.86 168.22 947.32 168.22 919.1 74.88 884.37 74.88 856.42 168.22 855.88 168.22 828.75 74.88 793.48 74.88 838.79 205.11 871.89 205.11 901.19 113.95 901.74 113.95 931.31 205.11 964.41 205.11 1009.45 74.88 975.53 74.88 947.86 168.22"/><path class="cls-2" d="M1136.42,88.85a54.54,54.54,0,0,0-19.94-13.29,68.9,68.9,0,0,0-25.1-4.48,73.21,73.21,0,0,0-27.27,5,63.71,63.71,0,0,0-36.35,36.09,74.63,74.63,0,0,0-5.29,28.62,73.4,73.4,0,0,0,5.29,28.63,60.34,60.34,0,0,0,14.65,21.29,65.83,65.83,0,0,0,22.11,13.43,79.37,79.37,0,0,0,28,4.75q36.62,0,55.89-26l-21.71-17.37a38.65,38.65,0,0,1-13.84,12.35q-8.4,4.47-20.62,4.47a38.25,38.25,0,0,1-13.56-2.44,41.16,41.16,0,0,1-11.67-6.65,32.51,32.51,0,0,1-8.27-10,32.1,32.1,0,0,1-3.67-12.89h99a35.12,35.12,0,0,0,.27-4.34v-4.34q0-17.64-4.74-30.8A62,62,0,0,0,1136.42,88.85ZM1055,127a32.15,32.15,0,0,1,11.26-22.66q10.18-8.82,24.83-8.82a33.66,33.66,0,0,1,13.7,2.58A26.62,26.62,0,0,1,1120,115a40,40,0,0,1,1.77,11.94Z"/><rect class="cls-2" x="1186.34" width="32.56" height="205.11"/><rect class="cls-2" x="1259.05" width="32.56" height="205.11"/></g></g></svg>