<svg xmlns="http://www.w3.org/2000/svg" viewBox="0 0 1351.94 294.33"><defs><style>.cls-1{fill:#fff;}</style></defs><g id="Layer_2" data-name="Layer 2"><g id="palette"><path class="cls-1" d="M114,88.85A54.46,54.46,0,0,0,94,75.56a68.86,68.86,0,0,0-25.1-4.48,73.2,73.2,0,0,0-27.26,5A63.76,63.76,0,0,0,5.29,112.19,74.63,74.63,0,0,0,0,140.81a73.4,73.4,0,0,0,5.29,28.63,60.47,60.47,0,0,0,14.65,21.29,65.83,65.83,0,0,0,22.11,13.43,79.41,79.41,0,0,0,28,4.75q36.63,0,55.89-26l-21.7-17.37a38.82,38.82,0,0,1-13.84,12.35q-8.41,4.47-20.62,4.47a38.26,38.26,0,0,1-13.57-2.44,41,41,0,0,1-11.66-6.65,32.68,32.68,0,0,1-8.28-10,32.25,32.25,0,0,1-3.66-12.89h99a35.12,35.12,0,0,0,.27-4.34v-4.34q0-17.64-4.75-30.8A61.82,61.82,0,0,0,114,88.85ZM32.56,127a32.11,32.11,0,0,1,11.26-22.66Q54,95.5,68.64,95.5a33.62,33.62,0,0,1,13.7,2.58,26.6,26.6,0,0,1,15.2,17A40.35,40.35,0,0,1,99.3,127Z"/><path class="cls-1" d="M233.06,71.08a37.9,37.9,0,0,0-22.79,7.06,47.42,47.42,0,0,0-15.2,18.45h-.54V74.88h-31.2V205.11h32.56V135.39a45.65,45.65,0,0,1,1.35-9.5,35,35,0,0,1,5.16-11.67A32.47,32.47,0,0,1,213,104.46q6.78-4.08,17.91-4.07a38.52,38.52,0,0,1,4.47.27,45.51,45.51,0,0,1,5.56,1.08V71.9a15,15,0,0,0-3.79-.68C235.68,71.13,234.32,71.08,233.06,71.08Z"/><path class="cls-1" d="M278.64,11.12A20,20,0,0,0,263.85,17a19,19,0,0,0,0,27.4,20,20,0,0,0,14.79,5.83,21.48,21.48,0,0,0,15.05-5.56,18.09,18.09,0,0,0,6.11-14,18.09,18.09,0,0,0-6.11-14A21.49,21.49,0,0,0,278.64,11.12Z"/><rect class="cls-1" x="262.63" y="74.88" width="32.56" height="130.23"/><path class="cls-1" d="M369.93,111.51a34.21,34.21,0,0,1,11.26-9.63,32.64,32.64,0,0,1,15.74-3.66,35.27,35.27,0,0,1,15.46,3.66,28.77,28.77,0,0,1,11.4,9.09L446,91.43q-7.87-9.5-21.3-14.92A75.4,75.4,0,0,0,369.93,76,67.3,67.3,0,0,0,347.82,89.8a65.39,65.39,0,0,0-15.06,21.71A70.51,70.51,0,0,0,327.2,140q0,16.27,5.56,29a63.63,63.63,0,0,0,37.71,35.27,80.42,80.42,0,0,0,27.27,4.61A76.69,76.69,0,0,0,425,204.16a53.8,53.8,0,0,0,20.75-13.43l-20.34-20.62a29,29,0,0,1-12.21,8.69,41.34,41.34,0,0,1-15.2,3,34,34,0,0,1-16.14-3.66,35.08,35.08,0,0,1-11.53-9.63,41.89,41.89,0,0,1-6.92-13.43A50.72,50.72,0,0,1,361.11,140a53.62,53.62,0,0,1,2.17-15.06A41.69,41.69,0,0,1,369.93,111.51Z"/><path class="cls-1" d="M657.66,90.89a60.73,60.73,0,0,0-45.58-19.81,59.15,59.15,0,0,0-16.15,2,62.58,62.58,0,0,0-12.88,5.15,42.68,42.68,0,0,0-9.64,7.06A47.32,47.32,0,0,0,567,93.06h-.81V74.88H535V293.17h32.56V187.75h.54a43.14,43.14,0,0,0,17.78,15.46,56.41,56.41,0,0,0,25.36,5.7A62.09,62.09,0,0,0,638,203.35a61.41,61.41,0,0,0,20.08-14.92,66.44,66.44,0,0,0,12.75-22,80.24,80.24,0,0,0,4.47-27,77,77,0,0,0-4.61-26.86A65.78,65.78,0,0,0,657.66,90.89Zm-17.77,63.76A41.91,41.91,0,0,1,633,168.21,36.15,36.15,0,0,1,621.3,178a37.39,37.39,0,0,1-32.56.14,39.23,39.23,0,0,1-12.07-9.63,42,42,0,0,1-7.6-13.43A45.84,45.84,0,0,1,566.5,140a47.06,47.06,0,0,1,2.57-15.2,41.67,41.67,0,0,1,7.6-13.56,41.2,41.2,0,0,1,12.07-9.77,33.28,33.28,0,0,1,16-3.8,35.34,35.34,0,0,1,16.55,3.67A34.8,34.8,0,0,1,633,111a42.19,42.19,0,0,1,6.92,13.43,50.93,50.93,0,0,1,2.3,15.06A52.29,52.29,0,0,1,639.89,154.65Z"/><path class="cls-1" d="M820.17,89.8A66.38,66.38,0,0,0,797.66,76a80.76,80.76,0,0,0-55.35,0A66.43,66.43,0,0,0,719.79,89.8a65.58,65.58,0,0,0-15.06,21.57,68.91,68.91,0,0,0-5.56,28.09,69.76,69.76,0,0,0,5.56,28.21,66.52,66.52,0,0,0,15.06,21.84,68.68,68.68,0,0,0,22.52,14.25,76.93,76.93,0,0,0,55.35,0,68.64,68.64,0,0,0,22.51-14.25,66.67,66.67,0,0,0,15.06-21.84,69.77,69.77,0,0,0,5.57-28.21,68.92,68.92,0,0,0-5.57-28.09A65.73,65.73,0,0,0,820.17,89.8Zm-14.78,64.85a41.91,41.91,0,0,1-6.92,13.56A36.15,36.15,0,0,1,786.8,178a39.13,39.13,0,0,1-33.64,0,36,36,0,0,1-11.67-9.77,41.7,41.7,0,0,1-6.91-13.56,52,52,0,0,1-2.31-15.19,50.62,50.62,0,0,1,2.31-15.06A42,42,0,0,1,741.49,111a34.7,34.7,0,0,1,11.67-9.63,40.38,40.38,0,0,1,33.64,0A34.8,34.8,0,0,1,798.47,111a42.19,42.19,0,0,1,6.92,13.43,50.93,50.93,0,0,1,2.3,15.06A52.29,52.29,0,0,1,805.39,154.65Z"/><polygon class="cls-1" points="1008.19 168.22 1007.65 168.22 979.43 74.88 944.7 74.88 916.76 168.22 916.22 168.22 889.09 74.88 853.81 74.88 899.12 205.11 932.22 205.11 961.52 113.95 962.07 113.95 991.64 205.11 1024.74 205.11 1069.78 74.88 1035.87 74.88 1008.19 168.22"/><path class="cls-1" d="M1196.75,88.85a54.46,54.46,0,0,0-19.94-13.29,68.86,68.86,0,0,0-25.1-4.48,73.2,73.2,0,0,0-27.26,5,63.76,63.76,0,0,0-36.36,36.09,74.63,74.63,0,0,0-5.29,28.62,73.4,73.4,0,0,0,5.29,28.63,60.47,60.47,0,0,0,14.65,21.29,65.83,65.83,0,0,0,22.11,13.43,79.41,79.41,0,0,0,28,4.75q36.63,0,55.89-26L1187,165.5a38.7,38.7,0,0,1-13.83,12.35q-8.42,4.47-20.62,4.47a38.26,38.26,0,0,1-13.57-2.44,41.16,41.16,0,0,1-11.67-6.65,32.79,32.79,0,0,1-8.27-10,32.25,32.25,0,0,1-3.66-12.89h99a37.18,37.18,0,0,0,.27-4.34v-4.34q0-17.64-4.75-30.8A61.82,61.82,0,0,0,1196.75,88.85ZM1115.36,127a32.11,32.11,0,0,1,11.26-22.66q10.17-8.82,24.82-8.82a33.62,33.62,0,0,1,13.7,2.58,26.67,26.67,0,0,1,15.2,17A40.35,40.35,0,0,1,1182.1,127Z"/><rect class="cls-1" x="1246.67" width="32.56" height="205.11"/><rect class="cls-1" x="1319.38" width="32.56" height="205.11"/><path class="cls-1" d="M50.59,267.47a27.45,27.45,0,0,1-2.15,11.38,21.37,21.37,0,0,1-5.95,7.9,24.93,24.93,0,0,1-8.92,4.63,38.7,38.7,0,0,1-11,1.51H8.15V242H22.56a39.81,39.81,0,0,1,11,1.48,24.54,24.54,0,0,1,8.92,4.59,21.43,21.43,0,0,1,5.95,7.94A27.71,27.71,0,0,1,50.59,267.47Zm-40.86-24v48H22.18a38.57,38.57,0,0,0,10.54-1.4,23.79,23.79,0,0,0,8.52-4.31,20.43,20.43,0,0,0,5.69-7.44A25.72,25.72,0,0,0,49,267.47a26,26,0,0,0-2.08-10.88,20.37,20.37,0,0,0-5.69-7.47,23.25,23.25,0,0,0-8.52-4.27,39.37,39.37,0,0,0-10.54-1.37Z"/><path class="cls-1" d="M76,292.89V242h29.66v1.44H77.6v22.34H104v1.43H77.6v24.21h29.23v1.43Z"/><path class="cls-1" d="M159.11,280.68a12.86,12.86,0,0,1-1.26,5.78,13.06,13.06,0,0,1-3.34,4.31,14,14,0,0,1-4.92,2.66,19.43,19.43,0,0,1-5.92.9,21.67,21.67,0,0,1-8.65-1.69,18.23,18.23,0,0,1-6.5-4.56l1.22-1.08a17.49,17.49,0,0,0,6.35,4.42,19.82,19.82,0,0,0,7.51,1.47,16.91,16.91,0,0,0,5.31-.82,14.07,14.07,0,0,0,4.45-2.37,11,11,0,0,0,3.06-3.81,11.67,11.67,0,0,0,1.11-5.21,9.41,9.41,0,0,0-1.22-4.95,12.06,12.06,0,0,0-3.16-3.45,19.08,19.08,0,0,0-4.42-2.41q-2.47-1-5-1.76c-2.11-.67-4-1.37-5.78-2.11a17.7,17.7,0,0,1-4.52-2.73,11.1,11.1,0,0,1-2.95-3.88,13.17,13.17,0,0,1-1-5.5,12.1,12.1,0,0,1,4.67-9.8,15.74,15.74,0,0,1,5-2.58,19.71,19.71,0,0,1,6-.9,18.78,18.78,0,0,1,7.36,1.47,14.55,14.55,0,0,1,5.71,4.2L157,247.36a13.62,13.62,0,0,0-5.14-3.92A16.44,16.44,0,0,0,145,242a18,18,0,0,0-5.06.72,14.32,14.32,0,0,0-4.49,2.19,11.28,11.28,0,0,0-3.23,3.7,10.79,10.79,0,0,0-1.22,5.24,10.62,10.62,0,0,0,1.08,5,11,11,0,0,0,2.87,3.48,16.45,16.45,0,0,0,4.06,2.37c1.51.62,3.05,1.2,4.63,1.72q3.22,1.08,6,2.19a21.36,21.36,0,0,1,4.92,2.7,11.27,11.27,0,0,1,3.31,3.84A11.72,11.72,0,0,1,159.11,280.68Z"/><path class="cls-1" d="M184.46,292.89V242H186v50.85Z"/><path class="cls-1" d="M248.87,293a37.56,37.56,0,0,1-10.65,1.37,28.33,28.33,0,0,1-11-2.08,25.5,25.5,0,0,1-8.49-5.71A25.17,25.17,0,0,1,213.3,278a29.28,29.28,0,0,1-1.91-10.67,28.86,28.86,0,0,1,1.94-10.66,25.26,25.26,0,0,1,5.42-8.48,24.77,24.77,0,0,1,8.37-5.56,28.07,28.07,0,0,1,10.77-2,27.17,27.17,0,0,1,9.48,1.58A25.72,25.72,0,0,1,255,246.5l-1.15,1.15a16.14,16.14,0,0,0-3.34-2.41,25.88,25.88,0,0,0-4-1.76,27.55,27.55,0,0,0-8.66-1.44,25.56,25.56,0,0,0-10.2,2,23.5,23.5,0,0,0-7.86,5.42,24.14,24.14,0,0,0-5,8.05,27.3,27.3,0,0,0-1.76,9.83,28.43,28.43,0,0,0,1.73,9.92,23.82,23.82,0,0,0,5,8.15,23.34,23.34,0,0,0,8,5.49,26.92,26.92,0,0,0,10.67,2,35.55,35.55,0,0,0,9.19-1.08,40.62,40.62,0,0,0,7.4-2.72v-20H241.7v-1.36h14.8V290A39.09,39.09,0,0,1,248.87,293Z"/><path class="cls-1" d="M321.78,292.89l-36.49-48.83h-.21v48.83H283.5V242h2.22l36.56,48.77h.22V242h1.58v50.85Z"/><path class="cls-1" d="M351.87,292.89V242h29.66v1.44H353.45v22.34h26.43v1.43H353.45v24.21h29.23v1.43Z"/><path class="cls-1" d="M435.68,292.89l-15.37-25.64H408.39v25.64h-1.58V242h14.08a32.39,32.39,0,0,1,5.67.51,14.39,14.39,0,0,1,5.14,1.9,11,11,0,0,1,3.69,3.84,12.34,12.34,0,0,1,1.44,6.32,11.1,11.1,0,0,1-4.88,9.81,14.6,14.6,0,0,1-4.78,2.11,21,21,0,0,1-5.13.65l15.44,25.71Zm-.43-38.28a10.67,10.67,0,0,0-1.29-5.49,9.64,9.64,0,0,0-3.41-3.45,14.71,14.71,0,0,0-4.89-1.76,31.86,31.86,0,0,0-5.63-.5H408.39v22.48h12.43q7,0,10.73-2.95A10,10,0,0,0,435.25,254.61Z"/><path class="cls-1" d="M666.69,292.89l-6-14.58H631.14l-6.24,14.58h-1.73L645.22,242h2l21.19,50.85Zm-20.54-49.84L631.72,277h28.44Z"/><path class="cls-1" d="M728.17,292.89l-36.48-48.83h-.22v48.83h-1.58V242h2.23l36.55,48.77h.22V242h1.58v50.85Z"/><path class="cls-1" d="M800.71,267.47a27.61,27.61,0,0,1-2.15,11.38,21.39,21.39,0,0,1-6,7.9,24.85,24.85,0,0,1-8.92,4.63,38.7,38.7,0,0,1-11,1.51H758.26V242h14.41a39.81,39.81,0,0,1,11,1.48,24.46,24.46,0,0,1,8.92,4.59,21.45,21.45,0,0,1,6,7.94A27.87,27.87,0,0,1,800.71,267.47Zm-40.87-24v48h12.45a38.57,38.57,0,0,0,10.54-1.4,23.84,23.84,0,0,0,8.53-4.31,20.4,20.4,0,0,0,5.68-7.44,25.72,25.72,0,0,0,2.09-10.84A26,26,0,0,0,797,256.59a20.35,20.35,0,0,0-5.68-7.47,23.3,23.3,0,0,0-8.53-4.27,39.37,39.37,0,0,0-10.54-1.37Z"/><path class="cls-1" d="M899.1,267.47A27.61,27.61,0,0,1,897,278.85a21.39,21.39,0,0,1-6,7.9,24.85,24.85,0,0,1-8.92,4.63,38.7,38.7,0,0,1-11,1.51H856.65V242h14.41a39.81,39.81,0,0,1,11,1.48,24.46,24.46,0,0,1,8.92,4.59,21.45,21.45,0,0,1,6,7.94A27.87,27.87,0,0,1,899.1,267.47Zm-40.87-24v48h12.45a38.57,38.57,0,0,0,10.54-1.4,23.84,23.84,0,0,0,8.53-4.31,20.4,20.4,0,0,0,5.68-7.44,25.72,25.72,0,0,0,2.09-10.84,26,26,0,0,0-2.09-10.88,20.35,20.35,0,0,0-5.68-7.47,23.3,23.3,0,0,0-8.53-4.27,39.37,39.37,0,0,0-10.54-1.37Z"/><path class="cls-1" d="M924.52,292.89V242h29.66v1.44H926.1v22.34h26.43v1.43H926.1v24.21h29.23v1.43Z"/><path class="cls-1" d="M994.69,292.89h-2.45L973.14,242h1.72l18.53,49.42h.15L1012.35,242h1.73Z"/><path class="cls-1" d="M1035.55,292.89V242h29.66v1.44h-28.08v22.34h26.43v1.43h-26.43v24.21h29.23v1.43Z"/><path class="cls-1" d="M1090.49,292.89V242h1.58v49.42h25.28v1.43Z"/><path class="cls-1" d="M1185.65,267.47a28.72,28.72,0,0,1-2,10.81,25.45,25.45,0,0,1-5.45,8.47,25,25,0,0,1-8.3,5.57,28,28,0,0,1-20.83,0,25,25,0,0,1-8.29-5.57,25.63,25.63,0,0,1-5.46-8.47,30.64,30.64,0,0,1,0-21.62,25.67,25.67,0,0,1,5.46-8.48,24.91,24.91,0,0,1,8.26-5.56,28.17,28.17,0,0,1,20.9,0,25.11,25.11,0,0,1,8.26,5.56,25.49,25.49,0,0,1,5.45,8.48A28.69,28.69,0,0,1,1185.65,267.47Zm-1.58,0a27.22,27.22,0,0,0-1.8-10,24.31,24.31,0,0,0-5.06-8.08,23.62,23.62,0,0,0-7.79-5.42,25.79,25.79,0,0,0-19.82,0,23.51,23.51,0,0,0-7.79,5.42,24.5,24.5,0,0,0-5.07,8.08,27.21,27.21,0,0,0-1.79,10,27.66,27.66,0,0,0,1.76,9.95,24.1,24.1,0,0,0,5,8.07,23.27,23.27,0,0,0,7.75,5.43,26.65,26.65,0,0,0,20.11,0,23.31,23.31,0,0,0,7.76-5.43,24.26,24.26,0,0,0,5-8.07A27.88,27.88,0,0,0,1184.07,267.47Z"/><path class="cls-1" d="M1240.52,254.68a13.06,13.06,0,0,1-1.19,5.71,11.82,11.82,0,0,1-3.19,4.13,14,14,0,0,1-4.71,2.52,18.7,18.7,0,0,1-5.71.86h-13.14v25H1211V242h13.79a26.38,26.38,0,0,1,5.53.61,15.43,15.43,0,0,1,5.06,2,11.29,11.29,0,0,1,3.7,3.88A11.85,11.85,0,0,1,1240.52,254.68Zm-1.58,0a10.81,10.81,0,0,0-1.22-5.38,10,10,0,0,0-3.16-3.45,13.49,13.49,0,0,0-4.35-1.87,20.58,20.58,0,0,0-4.77-.57h-12.86v23.12h13.22a18,18,0,0,0,4.74-.64,12.12,12.12,0,0,0,4.23-2.08,10.79,10.79,0,0,0,3-3.7A11.83,11.83,0,0,0,1238.94,254.68Z"/><path class="cls-1" d="M1264.65,292.89V242h29.66v1.44h-28.08v22.34h26.43v1.43h-26.43v24.21h29.23v1.43Z"/><path class="cls-1" d="M1348.46,292.89l-15.37-25.64h-11.92v25.64h-1.58V242h14.08a32.39,32.39,0,0,1,5.67.51,14.32,14.32,0,0,1,5.14,1.9,11,11,0,0,1,3.69,3.84,12.34,12.34,0,0,1,1.44,6.32,11.1,11.1,0,0,1-4.88,9.81,14.6,14.6,0,0,1-4.78,2.11,21,21,0,0,1-5.13.65l15.44,25.71Zm-.43-38.28a10.67,10.67,0,0,0-1.29-5.49,9.64,9.64,0,0,0-3.41-3.45,14.71,14.71,0,0,0-4.89-1.76,31.89,31.89,0,0,0-5.64-.5h-11.63v22.48h12.42q7,0,10.74-2.95A10,10,0,0,0,1348,254.61Z"/></g></g></svg>