<svg id="adobe" xmlns="http://www.w3.org/2000/svg" viewBox="0 0 128 128"><defs><style>.cls-1{fill:#fff;}</style></defs><title>vAdobe</title><path class="cls-1" d="M4.35,63.76C8,43.81,26.88,30.69,46.66,33.23a2.62,2.62,0,0,0,1.78-.58c1.69-1.34,3.2-2.92,4.94-4.18a43.51,43.51,0,0,1,32-8.35,42.11,42.11,0,0,1,26.26,13.13c10.26,10.83,14.1,23.77,11.66,38.53-3,18.09-18.14,33-36.24,35.74l-2,.31a34.25,34.25,0,0,1-5.35.42H41.08A20.3,20.3,0,0,1,38,108l-3-.48c-14.6-2.4-27.13-14.53-30-29C4.58,76.56,3.43,69.37,4.35,63.76ZM57,36.33c2.16,1.32,4.22,2.47,6.15,3.81a2.07,2.07,0,0,0,2.65.06,27.32,27.32,0,0,1,20.33-3.1C99,39.82,110.67,53.78,106.69,70.37,103.85,82.19,93.51,91.15,81.81,91.7c-7.63.35-14.52-1.54-20.22-6.8-2.8-2.57-5.41-5.34-8.09-8-3.25-3.26-6.46-6.56-9.75-9.77A4,4,0,0,0,37.69,67C36,68.77,36.14,71.07,38,73s3.86,3.82,5.79,5.74C48,82.85,52.14,87,56.4,91.09c8.08,7.69,17.93,10.07,28.62,8.4a35.89,35.89,0,1,0-12.7-70.61A34.72,34.72,0,0,0,57,36.33ZM54,99.86c-.51-.53-.74-.79-1-1-1.6-1.51-3.21-3.15-4.76-4.56-2.1-1.78-3.91-2.93-6.79-2.87-12.87.25-22.61-11.55-20.58-24.11,1.37-8.44,6.43-14.17,14.56-16.67s15.39-.57,21.46,5.49c3.76,3.76,7.5,7.56,11.26,11.32a4,4,0,0,0,5.79.08,3.94,3.94,0,0,0-.12-5.68C70,57.93,66.19,54,62.26,50.19c-6.53-6.35-14.21-9.53-23.49-8.52A29.13,29.13,0,0,0,34.92,99a36.87,36.87,0,0,0,7.11.88C45.89,100,49.77,99.86,54,99.86Z"/></svg>