<svg id="git" xmlns="http://www.w3.org/2000/svg" viewBox="0 0 128 128"><defs><style>.cls-1{fill:#fff;}</style></defs><title>vBash</title><path class="cls-1" d="M63.28,124c-3.3-.6-5.27-3.07-7.45-5.25L6.93,69.81c-3.78-3.79-3.78-8.14,0-11.92L41.05,23.72a8.84,8.84,0,0,0,.87-1.25c.53.44.8.64,1,.87,4,4,7.93,8,11.92,11.9a1.6,1.6,0,0,1,.49,1.85A9.1,9.1,0,0,0,59.77,47.7a1.61,1.61,0,0,1,.95,1.67q0,15.21,0,30.43a1.6,1.6,0,0,1-.94,1.67,9.22,9.22,0,0,0-4.41,10.84,9.29,9.29,0,0,0,17.84-.16A9.16,9.16,0,0,0,69.57,82a2.14,2.14,0,0,1-1.1-2.07c0-9.85,0-19.69,0-29.54V49.1a8.91,8.91,0,0,1,.72.61c3.55,3.54,7.09,7.1,10.65,10.64A1.46,1.46,0,0,1,80.33,62a9.3,9.3,0,1,0,18.2,3.3,9.14,9.14,0,0,0-7.65-9.83,23.94,23.94,0,0,0-3.87.09,2,2,0,0,1-1.28-.38q-6.08-6-12.06-12.08a1.73,1.73,0,0,1-.34-1.37,9.26,9.26,0,0,0-11-11.21A1.67,1.67,0,0,1,60.59,30q-6-6.06-12.05-12.09l-.76-.81c.25-.29.48-.57.73-.82,3.2-3.21,6.39-6.43,9.61-9.62,3.54-3.52,8-3.54,11.51,0Q95.48,32.49,121.3,58.36c3.5,3.51,3.46,8-.06,11.52Q95.56,95.58,69.9,121.29A11.08,11.08,0,0,1,64.85,124Z"/></svg>