<svg id="blender" xmlns="http://www.w3.org/2000/svg" viewBox="0 0 128 128"><defs><style>.cls-1{fill:#fff;}</style></defs><title>vBlender</title><path class="cls-1" d="M41,74a5.13,5.13,0,0,0-.46.32Q29.38,83.46,18.21,92.62a12.26,12.26,0,0,1-5.55,2.89,7.43,7.43,0,0,1-6.52-1.42,6,6,0,0,1-2.09-5.53,9.94,9.94,0,0,1,4.15-6.9L50.94,48.85a7,7,0,0,0,.53-.47c-.32,0-.49,0-.66,0l-19.63,0c-1.57,0-3.14,0-4.71-.05a6,6,0,0,1-3.79-1.51,4.6,4.6,0,0,1-.86-5.9,8.61,8.61,0,0,1,6.06-4.18,10.59,10.59,0,0,1,2.18-.2q23.34,0,46.69,0l.81,0c-.23-.22-.35-.35-.48-.45l-15-12.17a4.26,4.26,0,0,1-1.87-3.34,4.6,4.6,0,0,1,2.32-3.92,8.42,8.42,0,0,1,9.5.29Q90.48,31.13,109,45.25a38,38,0,0,1,12.91,17.23,34.23,34.23,0,0,1,1.94,8.42,34.62,34.62,0,0,1-5.19,22.38,40.53,40.53,0,0,1-21.36,16.9,42.14,42.14,0,0,1-8.93,2.15,48,48,0,0,1-8.31.35,44.17,44.17,0,0,1-14.66-3.18A39.75,39.75,0,0,1,44,90,32.29,32.29,0,0,1,40.9,79.7a21,21,0,0,1,.15-5.13c0-.11,0-.23,0-.34A.72.72,0,0,0,41,74Zm66.76-2.85c-.05-.61-.1-1.58-.23-2.53a21,21,0,0,0-5-11.15c-5-5.82-11.46-8.66-19-9.11a26.28,26.28,0,0,0-6.44.47A25.64,25.64,0,0,0,62.41,57a21.35,21.35,0,0,0-5.56,17,20.3,20.3,0,0,0,3.78,9.92C65.4,90.51,72,93.9,80,94.64a26.5,26.5,0,0,0,7.22-.38,25.64,25.64,0,0,0,13.57-6.87A22,22,0,0,0,107.79,71.14Z"/><path class="cls-1" d="M83.25,56.09A16.24,16.24,0,0,1,95.9,62.18,13.65,13.65,0,0,1,94.49,81a16.27,16.27,0,0,1-9.78,4.41A16.67,16.67,0,0,1,71.08,81a13.42,13.42,0,0,1-4.46-11.12A13.71,13.71,0,0,1,71.8,60,17.28,17.28,0,0,1,83.25,56.09Z"/></svg>