<svg id="gh" xmlns="http://www.w3.org/2000/svg" viewBox="0 0 128 128"><defs><style>.cls-1{fill:#fff;}</style></defs><title>vGh</title><path class="cls-1" d="M116,33.85A59.77,59.77,0,0,0,94.12,12,58.75,58.75,0,0,0,64,4a58.72,58.72,0,0,0-30.12,8A59.77,59.77,0,0,0,12.05,33.85,58.63,58.63,0,0,0,4,64,58.25,58.25,0,0,0,15.45,99.24,58.77,58.77,0,0,0,45,120.92a3.52,3.52,0,0,0,3.13-.55,3,3,0,0,0,1-2.34c0-.16,0-1.56,0-4.22s0-5,0-7l-1.8.31a22.59,22.59,0,0,1-4.34.27,32.63,32.63,0,0,1-5.43-.54,12.1,12.1,0,0,1-5.23-2.35,9.92,9.92,0,0,1-3.44-4.8L28.06,98a19.45,19.45,0,0,0-2.46-4,9.38,9.38,0,0,0-3.4-3l-.54-.39a5.64,5.64,0,0,1-1-.94,4.17,4.17,0,0,1-.7-1.09q-.24-.56.39-.9a5,5,0,0,1,2.26-.35l1.57.23A11.38,11.38,0,0,1,28,89.43a12.65,12.65,0,0,1,3.79,4.07,13.77,13.77,0,0,0,4.34,4.88,9.19,9.19,0,0,0,5.11,1.68,22.21,22.21,0,0,0,4.46-.39,15.4,15.4,0,0,0,3.51-1.17,12.68,12.68,0,0,1,3.83-8,52.55,52.55,0,0,1-8-1.41A31.41,31.41,0,0,1,37.71,86a21,21,0,0,1-6.29-5.23,25.14,25.14,0,0,1-4.1-8.2,38.94,38.94,0,0,1-1.6-11.72,22.79,22.79,0,0,1,6.17-16.09q-2.89-7.11.55-15.94,2.27-.7,6.72,1.05a48.61,48.61,0,0,1,6.52,3c1.38.83,2.49,1.54,3.32,2.11a56.43,56.43,0,0,1,30,0l3-1.87a42.19,42.19,0,0,1,7.18-3.44q4.16-1.56,6.34-.86,3.51,8.84.62,15.94a22.79,22.79,0,0,1,6.17,16.09,39.31,39.31,0,0,1-1.6,11.76,24.29,24.29,0,0,1-4.14,8.2A21.79,21.79,0,0,1,90.21,86a31.79,31.79,0,0,1-7.34,3,52.55,52.55,0,0,1-8,1.41q4.06,3.51,4.06,11.09V118a3.13,3.13,0,0,0,1,2.34,3.37,3.37,0,0,0,3.08.54,58.7,58.7,0,0,0,29.58-21.67A58.4,58.4,0,0,0,124,64,58.72,58.72,0,0,0,116,33.85Z"/></svg>