<svg id="ig" xmlns="http://www.w3.org/2000/svg" viewBox="0 0 128 128"><defs><style>.cls-1{fill:#fff;}</style></defs><title>vIg</title><path class="cls-1" d="M64.07,50.42A13.61,13.61,0,1,0,77.66,64.06,13.61,13.61,0,0,0,64.07,50.42Z"/><path class="cls-1" d="M97.39,50.13c-.08-1.68-.16-3.37-.31-5.06A18.23,18.23,0,0,0,95.9,40a13.26,13.26,0,0,0-7.13-7.53,19.77,19.77,0,0,0-6.94-1.58c-1.9-.13-3.8-.2-5.7-.26s-3.75-.05-5.63-.06H62.42c-4,0-8.09.05-12.13.13-1.75,0-3.5.16-5.25.31a17.92,17.92,0,0,0-4.84,1.11,13.29,13.29,0,0,0-8,7.91,21.07,21.07,0,0,0-1.33,6.71c-.13,3-.22,6-.26,8.93-.05,2.78,0,5.57,0,8.35,0,2.53,0,5,0,7.57s.1,5,.16,7.57a36,36,0,0,0,.48,5.38A16.38,16.38,0,0,0,33,89.72,13.36,13.36,0,0,0,40.34,96a21.85,21.85,0,0,0,6.49,1.22c2.73.13,5.46.21,8.2.26,2.33,0,4.67,0,7,0,3.81,0,7.62,0,11.43,0,1.91,0,3.82-.09,5.73-.15a38,38,0,0,0,5.32-.46,17,17,0,0,0,5.25-1.75A13.37,13.37,0,0,0,96,87.83a21.91,21.91,0,0,0,1.25-6.6c.13-3,.19-6.07.26-9.1,0-1,0-1.94,0-2.92,0-4.84,0-9.69,0-14.54C97.48,53.16,97.45,51.64,97.39,50.13ZM63.84,85A21,21,0,1,1,85,64.2,21,21,0,0,1,63.84,85Zm22-37.87a4.91,4.91,0,1,1,4.92-4.9A4.91,4.91,0,0,1,85.83,47.13Z"/><path class="cls-1" d="M64,4A60,60,0,1,0,124,63.82,60,60,0,0,0,64,4Zm40.94,69.26a.9.9,0,0,0,0,.16c0,1.84-.06,3.68-.14,5.52s-.18,3.41-.34,5.11a26.06,26.06,0,0,1-1.28,5.79,21,21,0,0,1-7.4,10.21A22.52,22.52,0,0,1,87,103.88a30.23,30.23,0,0,1-5.44.7c-3,.11-6,.18-9,.26-1,0-2.07,0-3.11,0-4.93,0-9.85,0-14.78,0-1.84,0-3.69-.07-5.53-.13a52,52,0,0,1-5.44-.38,26.61,26.61,0,0,1-6.58-1.67A20.57,20.57,0,0,1,26,92.23a26.39,26.39,0,0,1-2.41-9.72c-.15-2.26-.22-4.52-.29-6.79-.06-1.7-.06-3.41-.06-5.11q0-8.25,0-16.48c0-1.62.06-3.24.11-4.86.06-1.77.14-3.55.35-5.31a27.71,27.71,0,0,1,1.51-6.35A20.51,20.51,0,0,1,36.05,25.86,27,27,0,0,1,46.17,23.5c2.41-.14,4.83-.18,7.25-.27l.93,0H73.76l.16,0c1.72.05,3.45.08,5.17.14a51,51,0,0,1,5.38.38,26.71,26.71,0,0,1,6.22,1.54,20.55,20.55,0,0,1,11.84,11.46,27.27,27.27,0,0,1,2,9.38c.14,2.82.19,5.65.28,8.47a1.38,1.38,0,0,0,0,.2Z"/></svg>