<svg id="javascript" xmlns="http://www.w3.org/2000/svg" viewBox="0 0 128 128"><defs><style>.cls-1{fill:#fff;}</style></defs><title>vJavascript</title><path class="cls-1" d="M4,4V124H124V4ZM68.54,104.05a13.29,13.29,0,0,1-9.09,9.5,21,21,0,0,1-16.25-1.06,16.76,16.76,0,0,1-7.49-7.89,1.66,1.66,0,0,1-.11-.37l9.14-5.53c.63,1,1.19,1.91,1.83,2.8a6.76,6.76,0,0,0,7.69,2.74,4.3,4.3,0,0,0,3.34-3.44A19.34,19.34,0,0,0,58,96.92q0-18.32,0-36.65C58,59,57.8,59,59.26,59H69.33c0,.37,0,.66,0,1q0,18.74,0,37.48A22.87,22.87,0,0,1,68.54,104.05Zm45.56-.53a14.13,14.13,0,0,1-9.68,9.75,25.76,25.76,0,0,1-21.1-1.77A19.37,19.37,0,0,1,75.44,103L84.6,97.7,85.5,99a11.68,11.68,0,0,0,8.16,5.37,11.41,11.41,0,0,0,6.45-.72c3.88-1.79,4.48-6.49,1-8.94a39.36,39.36,0,0,0-6.18-3.22,66.09,66.09,0,0,1-9-4.56,15.94,15.94,0,0,1-6-19.15,13.12,13.12,0,0,1,6.83-7.42,20.26,20.26,0,0,1,17.69-.05,15.86,15.86,0,0,1,7,7.2l-8.78,5.64c-.28-.43-.52-.82-.78-1.2a7.23,7.23,0,0,0-7.91-3.47,4.43,4.43,0,0,0-3.75,3.44,4.67,4.67,0,0,0,1.58,5.11,22.13,22.13,0,0,0,3.85,2.27c3.34,1.63,6.77,3.06,10,4.79a24.09,24.09,0,0,1,4.67,3.45,13.87,13.87,0,0,1,4.37,9.78A17.44,17.44,0,0,1,114.1,103.52Z"/></svg>