<svg id="node" xmlns="http://www.w3.org/2000/svg" viewBox="0 0 128 128"><defs><style>.cls-1{fill:#fff;}</style></defs><title>vNode</title><path class="cls-1" d="M59.09,5.28a10.07,10.07,0,0,1,9.82,0Q91.35,18,113.78,30.63a9.23,9.23,0,0,1,4.67,8V89.43a9.32,9.32,0,0,1-5,8.12L68.72,122.78a9.79,9.79,0,0,1-9.93-.28l-13.42-7.76a7.72,7.72,0,0,1-2.58-1.86c.57-.77,1.59-.86,2.41-1.2a30.74,30.74,0,0,0,5.3-2.47,1.24,1.24,0,0,1,1.37.08c3.83,2.2,7.61,4.45,11.45,6.62.82.47,1.65-.15,2.34-.54Q87.61,103,109.57,90.59a1.43,1.43,0,0,0,.79-1.43q0-25.15,0-50.32a1.59,1.59,0,0,0-.94-1.57L64.87,12.16a1.54,1.54,0,0,0-1.74,0L18.57,37.28a1.57,1.57,0,0,0-.94,1.56V89.17a1.43,1.43,0,0,0,.81,1.41l11.9,6.72c2.23,1.2,5,1.91,7.44,1A5.64,5.64,0,0,0,41.43,93c0-16.68,0-33.35,0-50a1.24,1.24,0,0,1,1.36-1.28c1.91,0,3.82,0,5.72,0a1.31,1.31,0,0,1,1.24,1.52q0,25.17,0,50.34c0,4.48-1.83,9.34-6,11.53-5.09,2.64-11.39,2.08-16.43-.45-4.36-2.18-8.51-4.74-12.8-7.07a9.33,9.33,0,0,1-5-8.13V38.58a9.28,9.28,0,0,1,4.83-8.06Z"/><path class="cls-1" d="M72.09,40.5c6.5-.42,13.46-.25,19.31,3,4.53,2.45,7,7.6,7.12,12.63a1.38,1.38,0,0,1-1.49,1c-1.88,0-3.77,0-5.65,0A1.47,1.47,0,0,1,90,55.67a8.58,8.58,0,0,0-4.12-6c-3.48-1.74-7.51-1.66-11.3-1.62-2.77.15-5.75.39-8.1,2a5.1,5.1,0,0,0-1.7,5.72c.6,1.44,2.27,1.91,3.63,2.34,7.83,2,16.13,1.84,23.82,4.54,3.18,1.1,6.29,3.23,7.38,6.57,1.42,4.46.8,9.8-2.38,13.38-2.57,3-6.33,4.55-10.07,5.43a48.46,48.46,0,0,1-15.2.64c-4.75-.54-9.7-1.79-13.37-5a14,14,0,0,1-4.51-11.06,1.25,1.25,0,0,1,1.38-1.12q2.85,0,5.7,0a1.33,1.33,0,0,1,1.36,1.32c.35,2.29,1.21,4.7,3.21,6.06,3.86,2.49,8.71,2.32,13.13,2.39,3.66-.17,7.77-.21,10.76-2.63A6,6,0,0,0,91.25,73c-.46-1.68-2.22-2.46-3.73-3-7.73-2.45-16.12-1.56-23.78-4.33-3.11-1.1-6.12-3.17-7.31-6.37-1.67-4.52-.91-10.11,2.6-13.57S67.39,41,72.09,40.5Z"/></svg>