<svg id="office" xmlns="http://www.w3.org/2000/svg" viewBox="0 0 128 128"><defs><style>.cls-1{fill:#fff;}</style></defs><title>vOffice</title><path class="cls-1" d="M114.17,64.23q0,24.49,0,49a1.12,1.12,0,0,1-1,1.31q-16.92,4.63-33.83,9.36a3.25,3.25,0,0,1-2.11-.1q-17.94-6.66-35.88-13.28c-8.82-3.25-17.62-6.53-26.45-9.77a1.39,1.39,0,0,1-1.08-1.55q0-34.87,0-69.74a1.66,1.66,0,0,1,1.3-1.86c11-4.09,22-8.24,33-12.37Q62.9,9.65,77.65,4.13a2.27,2.27,0,0,1,1.34,0c11.36,3.25,22.71,6.54,34.07,9.78a1.28,1.28,0,0,1,1.13,1.48q0,24.45,0,48.89ZM78.18,23c-.32.06-.58.09-.83.15l-5.11,1.2L37.33,32.72c-1.59.38-1.37.06-1.37,1.73q0,28.08,0,56.16a1.43,1.43,0,0,1-1.1,1.57C28.94,94.46,23,96.79,17.1,99.11c-.83.32-1.65.66-2.47,1l0,.17L78.18,109Z"/></svg>