<svg id="text" xmlns="http://www.w3.org/2000/svg" viewBox="0 0 128 27.87"><defs><style>.cls-1{fill:#fff;}</style></defs><title>vText</title><path class="cls-1" d="M10.79,58.48A5.07,5.07,0,0,0,8.9,57.22a6.58,6.58,0,0,0-2.38-.42,7.08,7.08,0,0,0-2.58.47,6.12,6.12,0,0,0-2.06,1.34A6,6,0,0,0,.5,60.69,7.15,7.15,0,0,0,0,63.4a7,7,0,0,0,.5,2.71,5.79,5.79,0,0,0,1.39,2A6.4,6.4,0,0,0,4,69.4a7.56,7.56,0,0,0,2.65.45,6.19,6.19,0,0,0,5.29-2.47L9.86,65.74A3.66,3.66,0,0,1,8.55,66.9a4,4,0,0,1-2,.43,3.71,3.71,0,0,1-1.28-.23,4.32,4.32,0,0,1-1.11-.63,3.25,3.25,0,0,1-.78-1,3.13,3.13,0,0,1-.35-1.22h9.38a2.88,2.88,0,0,0,0-.41v-.41A8.57,8.57,0,0,0,12,60.56,5.88,5.88,0,0,0,10.79,58.48ZM3.08,62.09a3.09,3.09,0,0,1,1.07-2.15,3.48,3.48,0,0,1,2.35-.83,3.24,3.24,0,0,1,1.3.24,2.67,2.67,0,0,1,.91.66,2.52,2.52,0,0,1,.52,1,3.52,3.52,0,0,1,.17,1.13Z" transform="translate(0 -50.07)"/><path class="cls-1" d="M22.07,56.8a3.59,3.59,0,0,0-2.16.66,4.49,4.49,0,0,0-1.44,1.75h0V57.16h-3V69.49h3.09V62.88a4.47,4.47,0,0,1,.12-.89,3.4,3.4,0,0,1,.49-1.11,3.07,3.07,0,0,1,1-.92,3.27,3.27,0,0,1,1.7-.39,3,3,0,0,1,.42,0,3.21,3.21,0,0,1,.53.1V56.87a1.68,1.68,0,0,0-.36-.06Z" transform="translate(0 -50.07)"/><path class="cls-1" d="M26.38,51.12a1.9,1.9,0,0,0-1.4.55,1.81,1.81,0,0,0,0,2.6,1.9,1.9,0,0,0,1.4.55,2.06,2.06,0,0,0,1.43-.53,1.81,1.81,0,0,0,0-2.64A2.06,2.06,0,0,0,26.38,51.12Z" transform="translate(0 -50.07)"/><rect class="cls-1" x="24.87" y="7.09" width="3.08" height="12.33"/><path class="cls-1" d="M35,60.62a3.37,3.37,0,0,1,1.07-.91,3.12,3.12,0,0,1,1.49-.34,3.29,3.29,0,0,1,1.46.34,2.73,2.73,0,0,1,1.08.86l2.11-1.85a5,5,0,0,0-2-1.41A7.19,7.19,0,0,0,35,57.26a6.37,6.37,0,0,0-2.09,1.31,6.12,6.12,0,0,0-1.42,2,6.57,6.57,0,0,0-.53,2.7,6.65,6.65,0,0,0,.53,2.75,5.93,5.93,0,0,0,3.57,3.34,7.6,7.6,0,0,0,2.58.44,7.29,7.29,0,0,0,2.58-.45,5.12,5.12,0,0,0,2-1.27l-1.92-2a2.67,2.67,0,0,1-1.16.82,3.89,3.89,0,0,1-1.44.29,3.26,3.26,0,0,1-1.53-.35A3.32,3.32,0,0,1,35.06,66a3.92,3.92,0,0,1-.65-1.27,4.69,4.69,0,0,1-.22-1.43,4.93,4.93,0,0,1,.21-1.42A3.9,3.9,0,0,1,35,60.62Z" transform="translate(0 -50.07)"/><path class="cls-1" d="M62.27,58.67A5.76,5.76,0,0,0,58,56.8a5.62,5.62,0,0,0-1.53.19,5.86,5.86,0,0,0-1.22.49,3.77,3.77,0,0,0-.91.67,3.86,3.86,0,0,0-.6.73h-.08V57.16h-3V77.82h3.08v-10h0a4,4,0,0,0,1.68,1.47,5.35,5.35,0,0,0,2.4.54,5.84,5.84,0,0,0,2.53-.53,5.72,5.72,0,0,0,1.9-1.41,6.15,6.15,0,0,0,1.21-2.08,7.68,7.68,0,0,0,.43-2.56,7.25,7.25,0,0,0-.44-2.54A6.17,6.17,0,0,0,62.27,58.67Zm-1.69,6A3.78,3.78,0,0,1,59.93,66a3.37,3.37,0,0,1-1.11.93,3.21,3.21,0,0,1-1.56.36,3.27,3.27,0,0,1-1.52-.35A3.73,3.73,0,0,1,54.6,66a3.9,3.9,0,0,1-.72-1.27,4.42,4.42,0,0,1-.24-1.43,4.53,4.53,0,0,1,.24-1.44,3.85,3.85,0,0,1,.72-1.28,4,4,0,0,1,1.14-.93,3.16,3.16,0,0,1,1.52-.36,3.29,3.29,0,0,1,2.67,1.26,3.92,3.92,0,0,1,.65,1.27,4.73,4.73,0,0,1,.22,1.43A4.8,4.8,0,0,1,60.58,64.71Z" transform="translate(0 -50.07)"/><path class="cls-1" d="M77.65,58.57a6.25,6.25,0,0,0-2.13-1.31,7.69,7.69,0,0,0-5.24,0,6.16,6.16,0,0,0-3.56,3.35,7.09,7.09,0,0,0,0,5.33A6.23,6.23,0,0,0,68.15,68a6.67,6.67,0,0,0,2.13,1.35,7.25,7.25,0,0,0,5.24,0A6.67,6.67,0,0,0,77.65,68a6.23,6.23,0,0,0,1.43-2.07,7,7,0,0,0,0-5.33A6.21,6.21,0,0,0,77.65,58.57Zm-1.4,6.14A3.78,3.78,0,0,1,75.6,66a3.37,3.37,0,0,1-1.11.93,3.69,3.69,0,0,1-3.18,0A3.37,3.37,0,0,1,70.2,66a3.78,3.78,0,0,1-.65-1.28,4.8,4.8,0,0,1-.22-1.44,4.73,4.73,0,0,1,.22-1.43,3.92,3.92,0,0,1,.65-1.27,3.31,3.31,0,0,1,1.11-.91,3.79,3.79,0,0,1,3.18,0,3.31,3.31,0,0,1,1.11.91,3.92,3.92,0,0,1,.65,1.27,4.73,4.73,0,0,1,.22,1.43A4.8,4.8,0,0,1,76.25,64.71Z" transform="translate(0 -50.07)"/><polygon class="cls-1" points="95.45 15.93 95.4 15.93 92.73 7.09 89.44 7.09 86.8 15.93 86.75 15.93 84.18 7.09 80.84 7.09 85.13 19.42 88.26 19.42 91.04 10.79 91.09 10.79 93.89 19.42 97.02 19.42 101.29 7.09 98.08 7.09 95.45 15.93"/><path class="cls-1" d="M113.31,58.48a5.07,5.07,0,0,0-1.89-1.26A6.58,6.58,0,0,0,109,56.8a7.08,7.08,0,0,0-2.58.47,6.26,6.26,0,0,0-2.07,1.34A6.13,6.13,0,0,0,103,60.69a7.15,7.15,0,0,0-.5,2.71,7,7,0,0,0,.5,2.71,5.79,5.79,0,0,0,1.39,2,6.3,6.3,0,0,0,2.09,1.27,7.52,7.52,0,0,0,2.65.45,6.19,6.19,0,0,0,5.29-2.47l-2.06-1.64a3.66,3.66,0,0,1-1.31,1.16,4,4,0,0,1-1.95.43,3.67,3.67,0,0,1-1.28-.23,4.16,4.16,0,0,1-1.11-.63,3.1,3.1,0,0,1-.78-1,3,3,0,0,1-.35-1.22H115c0-.14,0-.28,0-.41v-.41a8.57,8.57,0,0,0-.45-2.92A5.88,5.88,0,0,0,113.31,58.48Zm-7.71,3.61a3,3,0,0,1,1.07-2.15,3.48,3.48,0,0,1,2.35-.83,3.19,3.19,0,0,1,1.29.24,2.62,2.62,0,0,1,.92.66,2.52,2.52,0,0,1,.52,1,3.81,3.81,0,0,1,.17,1.13Z" transform="translate(0 -50.07)"/><rect class="cls-1" x="118.03" width="3.08" height="19.42"/><rect class="cls-1" x="124.92" width="3.08" height="19.42"/><path class="cls-1" d="M4.79,75.39a2.7,2.7,0,0,1-.2,1.08,2.14,2.14,0,0,1-.57.75,2.39,2.39,0,0,1-.84.43,3.53,3.53,0,0,1-1,.15H.77V73H2.14a3.9,3.9,0,0,1,1,.14,2.41,2.41,0,0,1,.84.44,2.05,2.05,0,0,1,.57.75A2.7,2.7,0,0,1,4.79,75.39ZM.92,73.12v4.54H2.1a3.61,3.61,0,0,0,1-.13,2.24,2.24,0,0,0,.8-.41,1.88,1.88,0,0,0,.54-.7,2.75,2.75,0,0,0,0-2.06,1.92,1.92,0,0,0-.54-.71,2.08,2.08,0,0,0-.8-.4,3.61,3.61,0,0,0-1-.13Z" transform="translate(0 -50.07)"/><path class="cls-1" d="M7.2,77.8V73H10v.14H7.35v2.11h2.5v.14H7.35v2.29h2.76v.14Z" transform="translate(0 -50.07)"/><path class="cls-1" d="M15.06,76.64a1.35,1.35,0,0,1-.11.55,1.3,1.3,0,0,1-.32.41,1.41,1.41,0,0,1-.47.25,2,2,0,0,1-.56.08,2,2,0,0,1-.82-.16,1.69,1.69,0,0,1-.61-.43l.11-.1a1.67,1.67,0,0,0,.61.42,1.87,1.87,0,0,0,.71.14,1.69,1.69,0,0,0,.5-.08,1.22,1.22,0,0,0,.42-.23.94.94,0,0,0,.29-.36,1.07,1.07,0,0,0,.1-.49.88.88,0,0,0-.11-.47,1.3,1.3,0,0,0-.3-.32,1.69,1.69,0,0,0-.42-.23l-.47-.17a5.81,5.81,0,0,1-.55-.2,1.82,1.82,0,0,1-.43-.26,1.09,1.09,0,0,1-.28-.36,1.38,1.38,0,0,1-.09-.52,1.19,1.19,0,0,1,.12-.54.94.94,0,0,1,.32-.39,1.41,1.41,0,0,1,.47-.25,2.12,2.12,0,0,1,.57-.08,1.68,1.68,0,0,1,.7.14,1.34,1.34,0,0,1,.54.39l-.12.11a1.21,1.21,0,0,0-.49-.37,1.5,1.5,0,0,0-.64-.14,2,2,0,0,0-.48.07,1.5,1.5,0,0,0-.42.21,1,1,0,0,0-.31.35,1,1,0,0,0-.11.5,1,1,0,0,0,.1.47,1.09,1.09,0,0,0,.27.33,1.57,1.57,0,0,0,.38.22l.44.17a5.36,5.36,0,0,1,.57.2,1.91,1.91,0,0,1,.47.26,1.06,1.06,0,0,1,.31.36A1.05,1.05,0,0,1,15.06,76.64Z" transform="translate(0 -50.07)"/><path class="cls-1" d="M17.46,77.8V73h.15V77.8Z" transform="translate(0 -50.07)"/><path class="cls-1" d="M23.56,77.8a3.39,3.39,0,0,1-1,.13,2.71,2.71,0,0,1-1-.19,2.68,2.68,0,0,1-.8-.54,2.62,2.62,0,0,1-.52-.81,2.79,2.79,0,0,1-.18-1,2.75,2.75,0,0,1,.19-1,2.42,2.42,0,0,1,.51-.81A2.36,2.36,0,0,1,21.5,73a2.61,2.61,0,0,1,1-.19,2.57,2.57,0,0,1,.9.15,2.52,2.52,0,0,1,.72.4l-.11.11a1.44,1.44,0,0,0-.31-.22,1.84,1.84,0,0,0-.38-.17,2,2,0,0,0-.42-.1,1.87,1.87,0,0,0-.4,0,2.5,2.5,0,0,0-1,.19,2.17,2.17,0,0,0-.74.51,2.27,2.27,0,0,0-.48.77,2.63,2.63,0,0,0,0,1.86,2.2,2.2,0,0,0,.47.78,2.34,2.34,0,0,0,.75.52,2.71,2.71,0,0,0,1,.19,3.72,3.72,0,0,0,.87-.1,4.55,4.55,0,0,0,.71-.26V75.55H22.88v-.13h1.4v2.1A3.61,3.61,0,0,1,23.56,77.8Z" transform="translate(0 -50.07)"/><path class="cls-1" d="M30.47,77.8,27,73.17h0V77.8h-.15V73h.21l3.46,4.62h0V73h.15V77.8Z" transform="translate(0 -50.07)"/><path class="cls-1" d="M33.31,77.8V73h2.81v.14H33.46v2.11H36v.14H33.46v2.29h2.77v.14Z" transform="translate(0 -50.07)"/><path class="cls-1" d="M41.25,77.8l-1.46-2.43H38.67V77.8h-.15V73h1.33a3.39,3.39,0,0,1,.54,0,1.26,1.26,0,0,1,.48.18,1,1,0,0,1,.35.36,1.21,1.21,0,0,1,.14.6,1.09,1.09,0,0,1-.13.57,1.15,1.15,0,0,1-.33.36,1.46,1.46,0,0,1-.46.2,2,2,0,0,1-.48.06l1.46,2.44Zm0-3.63a1,1,0,0,0-.12-.52.85.85,0,0,0-.33-.32,1.26,1.26,0,0,0-.46-.17,3.07,3.07,0,0,0-.53,0h-1.1v2.13h1.17a1.57,1.57,0,0,0,1-.28A1,1,0,0,0,41.21,74.17Z" transform="translate(0 -50.07)"/><path class="cls-1" d="M63.12,77.8l-.57-1.38H59.76l-.6,1.38H59L61.09,73h.19l2,4.82Zm-1.94-4.72-1.37,3.21H62.5Z" transform="translate(0 -50.07)"/><path class="cls-1" d="M68.94,77.8l-3.45-4.63h0V77.8h-.15V73h.21L69,77.6h0V73h.15V77.8Z" transform="translate(0 -50.07)"/><path class="cls-1" d="M75.81,75.39a2.7,2.7,0,0,1-.2,1.08,2.14,2.14,0,0,1-.57.75,2.39,2.39,0,0,1-.84.43,3.53,3.53,0,0,1-1,.15H71.79V73h1.37a3.9,3.9,0,0,1,1,.14,2.41,2.41,0,0,1,.84.44,2.05,2.05,0,0,1,.57.75A2.7,2.7,0,0,1,75.81,75.39Zm-3.87-2.27v4.54h1.18a3.61,3.61,0,0,0,1-.13,2.24,2.24,0,0,0,.8-.41,1.88,1.88,0,0,0,.54-.7,2.75,2.75,0,0,0,0-2.06,1.92,1.92,0,0,0-.54-.71,2.08,2.08,0,0,0-.8-.4,3.61,3.61,0,0,0-1-.13Z" transform="translate(0 -50.07)"/><path class="cls-1" d="M85.13,75.39a2.54,2.54,0,0,1-.21,1.08,2,2,0,0,1-.56.75,2.35,2.35,0,0,1-.85.43,3.49,3.49,0,0,1-1,.15H81.11V73h1.36a3.84,3.84,0,0,1,1,.14,2.37,2.37,0,0,1,.85.44,1.93,1.93,0,0,1,.56.75A2.54,2.54,0,0,1,85.13,75.39Zm-3.87-2.27v4.54h1.17a3.56,3.56,0,0,0,1-.13,2.38,2.38,0,0,0,.81-.41,1.88,1.88,0,0,0,.54-.7,2.75,2.75,0,0,0,0-2.06,1.92,1.92,0,0,0-.54-.71,2.2,2.2,0,0,0-.81-.4,3.56,3.56,0,0,0-1-.13Z" transform="translate(0 -50.07)"/><path class="cls-1" d="M87.53,77.8V73h2.81v.14H87.68v2.11h2.5v.14h-2.5v2.29h2.77v.14Z" transform="translate(0 -50.07)"/><path class="cls-1" d="M94.18,77.8h-.24L92.14,73h.16l1.75,4.68h0L95.85,73H96Z" transform="translate(0 -50.07)"/><path class="cls-1" d="M98,77.8V73h2.81v.14H98.19v2.11h2.51v.14H98.19v2.29H101v.14Z" transform="translate(0 -50.07)"/><path class="cls-1" d="M103.25,77.8V73h.15v4.68h2.39v.14Z" transform="translate(0 -50.07)"/><path class="cls-1" d="M112.26,75.39a2.8,2.8,0,0,1-.19,1,2.62,2.62,0,0,1-.52.81,2.32,2.32,0,0,1-.78.52,2.53,2.53,0,0,1-1,.19,2.45,2.45,0,0,1-1-.19,2.27,2.27,0,0,1-.79-.52,2.62,2.62,0,0,1-.52-.81,3,3,0,0,1,0-2,2.62,2.62,0,0,1,.52-.81,2.32,2.32,0,0,1,.78-.52,2.67,2.67,0,0,1,2,0,2.32,2.32,0,0,1,.78.52,2.62,2.62,0,0,1,.52.81A2.8,2.8,0,0,1,112.26,75.39Zm-.15,0a2.48,2.48,0,0,0-.65-1.71,2.39,2.39,0,0,0-.74-.51,2.42,2.42,0,0,0-1.88,0,2.39,2.39,0,0,0-.74.51,2.53,2.53,0,0,0-.64,1.71,2.61,2.61,0,0,0,.16.94,2.42,2.42,0,0,0,.47.77,2.28,2.28,0,0,0,.74.51,2.47,2.47,0,0,0,1.9,0,2.28,2.28,0,0,0,.74-.51,2.42,2.42,0,0,0,.47-.77A2.62,2.62,0,0,0,112.11,75.39Z" transform="translate(0 -50.07)"/><path class="cls-1" d="M117.45,74.18a1.33,1.33,0,0,1-.11.54,1.19,1.19,0,0,1-.3.39,1.22,1.22,0,0,1-.45.24,1.91,1.91,0,0,1-.54.08h-1.24V77.8h-.15V73H116a2.46,2.46,0,0,1,.53.06,1.5,1.5,0,0,1,.47.19,1.27,1.27,0,0,1,.36.37A1.16,1.16,0,0,1,117.45,74.18Zm-.15,0a1.13,1.13,0,0,0-.11-.51,1.06,1.06,0,0,0-.3-.33,1.23,1.23,0,0,0-.41-.17,1.88,1.88,0,0,0-.46-.06h-1.21V75.3h1.25a1.74,1.74,0,0,0,.45-.06,1.16,1.16,0,0,0,.4-.2,1,1,0,0,0,.28-.35A1,1,0,0,0,117.3,74.18Z" transform="translate(0 -50.07)"/><path class="cls-1" d="M119.74,77.8V73h2.8v.14h-2.65v2.11h2.5v.14h-2.5v2.29h2.76v.14Z" transform="translate(0 -50.07)"/><path class="cls-1" d="M127.67,77.8l-1.45-2.43h-1.13V77.8h-.15V73h1.33a3.29,3.29,0,0,1,.54,0,1.26,1.26,0,0,1,.48.18,1,1,0,0,1,.35.36,1.21,1.21,0,0,1,.14.6,1.09,1.09,0,0,1-.13.57,1.15,1.15,0,0,1-.33.36,1.51,1.51,0,0,1-.45.2,2.12,2.12,0,0,1-.49.06l1.46,2.44Zm0-3.63a1,1,0,0,0-.12-.52.85.85,0,0,0-.33-.32,1.26,1.26,0,0,0-.46-.17,3.07,3.07,0,0,0-.53,0h-1.1v2.13h1.17a1.57,1.57,0,0,0,1-.28A1,1,0,0,0,127.63,74.17Z" transform="translate(0 -50.07)"/></svg>