<svg id="twitter" xmlns="http://www.w3.org/2000/svg" viewBox="0 0 128 128"><defs><style>.cls-1{fill:#fff;}</style></defs><title>vTwitter</title><path class="cls-1" d="M64,4a60,60,0,1,0,60,60A60,60,0,0,0,64,4Zm36.19,41.68A12,12,0,0,0,96,54.2,50.52,50.52,0,0,1,81.77,85.85c-13.66,14.37-35.95,16.29-50.57,10-2.42-1-4.8-2.19-7.2-3.28,0-.26.06-.51.1-.76,8.12,0,15.85-1.31,22.81-6.43-6.24-2.13-12-4.69-14.56-11.89h5.73l.31-.63c-7.28-3.06-11.5-8.29-12.19-16.47l6.07,1.69.47-.45c-6.46-6.32-7.73-13.56-4.09-22,9.16,10.22,20.13,16.71,34.26,17.68a45.66,45.66,0,0,1,0-6.52c1.7-11.47,15-17.95,24.64-11.47,4.15,2.8,7.3,1.83,11,.34,1-.42,2-.91,3-1.37l.55.49q-2.68,3.84-5.36,7.67l.18.44L103.65,41l.35.43A52.89,52.89,0,0,1,100.19,45.68Z"/></svg>