<svg id="unity" xmlns="http://www.w3.org/2000/svg" viewBox="0 0 128 128"><defs><style>.cls-1{fill:#fff;}</style></defs><title>vUnity</title><path class="cls-1" d="M5.44,63.93a3.32,3.32,0,0,0,.48-.34Q23.07,46.52,40.19,29.43a1,1,0,0,1,.77-.32l13.38.11a.8.8,0,0,0,.83-.48Q58.46,23,61.75,17.15a1,1,0,0,1,.69-.53L99.24,6.8l10.08-2.69.49-.11c.08.27.16.5.22.73q6.19,23.06,12.4,46.12a2.86,2.86,0,0,0,.07.28,1.19,1.19,0,0,1-.14,1c-1.82,3.05-3.61,6.11-5.41,9.16-.43.73-.84,1.48-1.3,2.18a.86.86,0,0,0,0,1.05c2.2,3.71,4.38,7.43,6.59,11.13a1.8,1.8,0,0,1,.19,1.48q-2.81,10.35-5.58,20.72L110,123.5c0,.15-.08.31-.14.5-.16,0-.32,0-.47-.09l-36.09-9.64c-3.61-1-7.22-1.94-10.83-2.89a1,1,0,0,1-.69-.54c-2.18-3.85-4.38-7.69-6.56-11.55a.83.83,0,0,0-.83-.49c-4.44,0-8.89.07-13.33.12a1.08,1.08,0,0,1-.85-.35Q23,81.46,5.86,64.37Zm24.19,6c.15.17.24.28.34.38L55.74,96.53a1.39,1.39,0,0,0,.66.39l35.71,9.15c.15,0,.31.06.54.1-.12-.22-.2-.38-.29-.53Q82.13,88,71.91,70.33a.77.77,0,0,0-.76-.45h-41Zm63-48.08-.54.12L56.6,31a2,2,0,0,0-1,.57l-13,13.23L30.05,57.63l-.44.47.58,0h41a.73.73,0,0,0,.73-.41Q82.14,40,92.4,22.28C92.47,22.16,92.52,22,92.62,21.84Zm10.28,78.44c.08-.26.13-.41.17-.57L113,64.4a1.53,1.53,0,0,0,0-.85q-2.18-7.75-4.34-15.5l-5.55-19.82c0-.14-.09-.28-.16-.49-.15.23-.24.38-.33.53L82.13,63.53a.83.83,0,0,0,0,1q10.25,17.66,20.46,35.3C102.67,99.93,102.76,100.06,102.9,100.28Z"/></svg>