<svg id="name" xmlns="http://www.w3.org/2000/svg" viewBox="0 0 128 28.98"><defs><style>.cls-1{fill:#646480;}.cls-2{fill:#dcdcff;}</style></defs><title>vName</title><path class="cls-1" d="M11.27,58.29a5.4,5.4,0,0,0-2-1.31,6.67,6.67,0,0,0-2.48-.44A7.22,7.22,0,0,0,4.12,57,6.36,6.36,0,0,0,.52,60.6,7.35,7.35,0,0,0,0,63.43a7.25,7.25,0,0,0,.52,2.83A5.94,5.94,0,0,0,2,68.36a6.41,6.41,0,0,0,2.19,1.33,7.92,7.92,0,0,0,2.76.47,6.48,6.48,0,0,0,5.53-2.57L10.3,65.87a3.74,3.74,0,0,1-1.37,1.22,4.22,4.22,0,0,1-2,.44,3.83,3.83,0,0,1-1.34-.24,4,4,0,0,1-1.15-.66,3.15,3.15,0,0,1-.82-1,3,3,0,0,1-.36-1.27H13a3.11,3.11,0,0,0,0-.43v-.43a9,9,0,0,0-.47-3A6.26,6.26,0,0,0,11.27,58.29Zm-8,3.77a3.17,3.17,0,0,1,1.11-2.24A3.63,3.63,0,0,1,6.79,59a3.5,3.5,0,0,1,1.35.25,2.68,2.68,0,0,1,.95.69,2.61,2.61,0,0,1,.55,1,3.88,3.88,0,0,1,.18,1.18Z" transform="translate(0 -49.51)"/><path class="cls-1" d="M23,56.54a3.75,3.75,0,0,0-2.25.69,4.74,4.74,0,0,0-1.51,1.83h-.05V56.91H16.15V69.79h3.21v-6.9A4.62,4.62,0,0,1,19.5,62,3.53,3.53,0,0,1,20,60.8a3.22,3.22,0,0,1,1-1,3.88,3.88,0,0,1,2.22-.38,4.08,4.08,0,0,1,.55.11v-3a1.43,1.43,0,0,0-.38-.07Z" transform="translate(0 -49.51)"/><path class="cls-1" d="M27.55,50.61a2,2,0,0,0-1.47.58,1.88,1.88,0,0,0,0,2.7,2,2,0,0,0,1.47.58A2.09,2.09,0,0,0,29,53.92a1.87,1.87,0,0,0,0-2.76A2.09,2.09,0,0,0,27.55,50.61Z" transform="translate(0 -49.51)"/><rect class="cls-1" x="25.96" y="7.4" width="3.22" height="12.87"/><path class="cls-1" d="M36.57,60.53a3.51,3.51,0,0,1,1.11-1,3.27,3.27,0,0,1,1.56-.36,3.5,3.5,0,0,1,1.53.36,2.79,2.79,0,0,1,1.12.9l2.2-1.93A5.21,5.21,0,0,0,42,57.07a7.53,7.53,0,0,0-5.42,0,6.7,6.7,0,0,0-2.19,1.37,6.4,6.4,0,0,0-1.48,2.14,6.92,6.92,0,0,0-.55,2.82,7.06,7.06,0,0,0,.55,2.87,6.18,6.18,0,0,0,1.5,2.14,6.43,6.43,0,0,0,2.22,1.35,8.05,8.05,0,0,0,2.7.45,7.7,7.7,0,0,0,2.7-.47,5.25,5.25,0,0,0,2-1.33l-2-2a2.89,2.89,0,0,1-1.21.85,4,4,0,0,1-1.5.3,3.33,3.33,0,0,1-2.74-1.31,4.29,4.29,0,0,1-.68-1.33,4.78,4.78,0,0,1-.23-1.49,5.42,5.42,0,0,1,.21-1.49A4.47,4.47,0,0,1,36.57,60.53Z" transform="translate(0 -49.51)"/><path class="cls-2" d="M59.37,58.49a6.21,6.21,0,0,0-2-1.43,6,6,0,0,0-2.52-.52,5.7,5.7,0,0,0-1.6.2,5.81,5.81,0,0,0-1.27.51,4.15,4.15,0,0,0-1,.69,4.64,4.64,0,0,0-.63.77h-.08v-1.8H47.24V78.49h3.22V68.07h0a4.4,4.4,0,0,0,1.76,1.53,5.67,5.67,0,0,0,2.51.56,6,6,0,0,0,4.63-2A6.7,6.7,0,0,0,60.67,66a8,8,0,0,0,.44-2.66,7.47,7.47,0,0,0-.46-2.66A6.54,6.54,0,0,0,59.37,58.49ZM57.61,64.8a4,4,0,0,1-.69,1.34,3.5,3.5,0,0,1-1.15,1,3.38,3.38,0,0,1-1.63.38,3.45,3.45,0,0,1-1.59-.36,3.93,3.93,0,0,1-1.19-1,4.27,4.27,0,0,1-.75-1.33,4.54,4.54,0,0,1-.26-1.49,4.64,4.64,0,0,1,.26-1.5,4.1,4.1,0,0,1,.75-1.34,4,4,0,0,1,1.19-1,3.34,3.34,0,0,1,1.59-.38,3.5,3.5,0,0,1,1.63.37,3.35,3.35,0,0,1,1.15.95,3.92,3.92,0,0,1,.69,1.33,5,5,0,0,1,.23,1.49A5.2,5.2,0,0,1,57.61,64.8Z" transform="translate(0 -49.51)"/><path class="cls-2" d="M75.43,58.39A6.54,6.54,0,0,0,73.21,57a8.06,8.06,0,0,0-5.48,0A6.44,6.44,0,0,0,64,60.52a7.3,7.3,0,0,0,0,5.56,6.51,6.51,0,0,0,1.49,2.16,6.79,6.79,0,0,0,2.22,1.41,7.62,7.62,0,0,0,5.48,0,6.79,6.79,0,0,0,2.22-1.41,6.51,6.51,0,0,0,1.49-2.16,7.3,7.3,0,0,0,0-5.56A6.49,6.49,0,0,0,75.43,58.39ZM74,64.8a4.13,4.13,0,0,1-.68,1.34,3.64,3.64,0,0,1-1.16,1,3.82,3.82,0,0,1-3.32,0,3.64,3.64,0,0,1-1.16-1A4.13,4.13,0,0,1,67,64.8a5.2,5.2,0,0,1-.23-1.5A5,5,0,0,1,67,61.81a4.08,4.08,0,0,1,.68-1.33,3.49,3.49,0,0,1,1.16-.95,3.91,3.91,0,0,1,3.32,0,3.49,3.49,0,0,1,1.16.95A4.08,4.08,0,0,1,74,61.81a5,5,0,0,1,.23,1.49A5.2,5.2,0,0,1,74,64.8Z" transform="translate(0 -49.51)"/><polygon class="cls-2" points="94.02 16.63 93.97 16.63 91.17 7.4 87.74 7.4 84.98 16.63 84.93 16.63 82.24 7.4 78.76 7.4 83.24 20.28 86.51 20.28 89.41 11.27 89.46 11.27 92.38 20.28 95.65 20.28 100.11 7.4 96.75 7.4 94.02 16.63"/><path class="cls-2" d="M112.66,58.29a5.36,5.36,0,0,0-2-1.31,6.7,6.7,0,0,0-2.48-.44,7.24,7.24,0,0,0-2.7.49,6.31,6.31,0,0,0-3.59,3.57,7.35,7.35,0,0,0-.53,2.83,7.25,7.25,0,0,0,.53,2.83,5.94,5.94,0,0,0,1.45,2.1,6.27,6.27,0,0,0,2.18,1.33,7.92,7.92,0,0,0,2.76.47,6.46,6.46,0,0,0,5.53-2.57l-2.15-1.72a3.71,3.71,0,0,1-1.36,1.22,4.27,4.27,0,0,1-2,.44,3.75,3.75,0,0,1-1.34-.24,4,4,0,0,1-1.16-.66,3.15,3.15,0,0,1-.82-1,3.34,3.34,0,0,1-.36-1.27h9.79a3.11,3.11,0,0,0,0-.43v-.43a9,9,0,0,0-.47-3A6.11,6.11,0,0,0,112.66,58.29Zm-8,3.77a3.15,3.15,0,0,1,1.12-2.24,3.6,3.6,0,0,1,2.45-.87,3.46,3.46,0,0,1,1.35.25,2.63,2.63,0,0,1,1,.69,2.75,2.75,0,0,1,.55,1,4.21,4.21,0,0,1,.17,1.18Z" transform="translate(0 -49.51)"/><rect class="cls-2" x="117.59" width="3.22" height="20.28"/><rect class="cls-2" x="124.78" width="3.22" height="20.28"/></svg>