<svg id="_2d" data-name="2d" xmlns="http://www.w3.org/2000/svg" xmlns:xlink="http://www.w3.org/1999/xlink" viewBox="0 0 128 128"><defs><style>.cls-1{fill:url(#linear-gradient);}.cls-2{fill:url(#linear-gradient-2);}.cls-3{fill:url(#linear-gradient-3);}.cls-4{fill:url(#linear-gradient-4);}</style><linearGradient id="linear-gradient" x1="7.52" y1="59.78" x2="53.83" y2="-6.36" gradientUnits="userSpaceOnUse"><stop offset="0" stop-color="#00ff80"/><stop offset="0.17" stop-color="#09ff83"/><stop offset="0.44" stop-color="#21ff8b"/><stop offset="0.79" stop-color="#49ff97"/><stop offset="1" stop-color="#64ffa0"/></linearGradient><linearGradient id="linear-gradient-2" x1="76.38" y1="131.19" x2="122.69" y2="65.05" xlink:href="#linear-gradient"/><linearGradient id="linear-gradient-3" x1="43.12" y1="90.78" x2="82.13" y2="35.06" xlink:href="#linear-gradient"/><linearGradient id="linear-gradient-4" x1="48.01" y1="90.27" x2="88.01" y2="33.14" xlink:href="#linear-gradient"/></defs><title>v2D</title><polygon class="cls-1" points="35.88 52.06 12.07 28.25 28.25 12.07 52.06 35.88 58.09 29.84 28.25 0 0 28.25 29.84 58.09 35.88 52.06"/><polygon class="cls-2" points="98.16 69.91 92.12 75.94 115.93 99.75 115.93 99.75 99.75 115.93 75.94 92.12 69.91 98.16 99.75 128 128 99.75 98.16 69.91"/><polygon class="cls-3" points="97.17 45.92 33.33 109.75 12.72 115.28 17.56 97.22 10.59 90.25 0.65 127.35 37.75 117.41 103.21 51.95 97.17 45.92"/><polygon class="cls-4" points="109.24 33.85 88.09 12.75 16.65 84.2 22.68 90.23 88.12 24.79 109.24 45.92 127.35 27.81 100.19 0.65 94.13 6.71 115.28 27.81 115.28 27.81 109.24 33.85"/></svg>